<mxfile host="65bd71144e">
    <diagram id="h8m3sAev7H-m7dmJf8yI" name="Page-1">
        <mxGraphModel dx="4528" dy="832" grid="1" gridSize="10" guides="1" tooltips="1" connect="1" arrows="1" fold="1" page="1" pageScale="1" pageWidth="3300" pageHeight="4681" math="0" shadow="0">
            <root>
                <mxCell id="0"/>
                <mxCell id="1" parent="0"/>
                <mxCell id="1028" value="Manager" style="whiteSpace=wrap;html=1;" vertex="1" parent="1">
                    <mxGeometry x="790.0000000000001" y="70" width="120" height="60" as="geometry"/>
                </mxCell>
                <mxCell id="1029" style="edgeStyle=none;html=1;exitX=1;exitY=0.5;exitDx=0;exitDy=0;entryX=0;entryY=0.5;entryDx=0;entryDy=0;" edge="1" parent="1" source="1033" target="1028">
                    <mxGeometry relative="1" as="geometry"/>
                </mxCell>
                <mxCell id="1030" style="edgeStyle=none;html=1;exitX=1;exitY=0.5;exitDx=0;exitDy=0;entryX=0;entryY=0.5;entryDx=0;entryDy=0;" edge="1" parent="1" source="1033" target="1034">
                    <mxGeometry relative="1" as="geometry">
                        <mxPoint x="790.0000000000001" y="200" as="targetPoint"/>
                    </mxGeometry>
                </mxCell>
                <mxCell id="1031" style="edgeStyle=none;html=1;exitX=1;exitY=0.5;exitDx=0;exitDy=0;entryX=0;entryY=0.5;entryDx=0;entryDy=0;" edge="1" parent="1" source="1033" target="1035">
                    <mxGeometry relative="1" as="geometry"/>
                </mxCell>
                <mxCell id="1032" style="edgeStyle=none;html=1;exitX=1;exitY=0.5;exitDx=0;exitDy=0;entryX=0;entryY=0.5;entryDx=0;entryDy=0;" edge="1" parent="1" source="1033" target="1036">
                    <mxGeometry relative="1" as="geometry"/>
                </mxCell>
                <mxCell id="1033" value="User" style="whiteSpace=wrap;html=1;" vertex="1" parent="1">
                    <mxGeometry x="540.0000000000001" y="200" width="120" height="60" as="geometry"/>
                </mxCell>
                <mxCell id="1034" value="Leader" style="whiteSpace=wrap;html=1;" vertex="1" parent="1">
                    <mxGeometry x="790.0000000000001" y="160" width="120" height="60" as="geometry"/>
                </mxCell>
                <mxCell id="1035" value="QA" style="whiteSpace=wrap;html=1;" vertex="1" parent="1">
                    <mxGeometry x="790.0000000000001" y="240" width="120" height="60" as="geometry"/>
                </mxCell>
                <mxCell id="1036" value="employee" style="whiteSpace=wrap;html=1;" vertex="1" parent="1">
                    <mxGeometry x="790.0000000000001" y="320" width="120" height="60" as="geometry"/>
                </mxCell>
                <mxCell id="1037" value="entity" style="whiteSpace=wrap;html=1;" vertex="1" parent="1">
                    <mxGeometry x="101.70000000000005" y="100" width="120" height="60" as="geometry"/>
                </mxCell>
                <mxCell id="1038" value="Action" style="shape=parallelogram;perimeter=parallelogramPerimeter;whiteSpace=wrap;html=1;fixedSize=1;" vertex="1" parent="1">
                    <mxGeometry x="99.52999999999997" y="210" width="120" height="60" as="geometry"/>
                </mxCell>
                <mxCell id="1039" value="branching action" style="rhombus;whiteSpace=wrap;html=1;" vertex="1" parent="1">
                    <mxGeometry x="119.52999999999997" y="310" width="80" height="80" as="geometry"/>
                </mxCell>
                <mxCell id="1040" value="start/end" style="ellipse;whiteSpace=wrap;html=1;" vertex="1" parent="1">
                    <mxGeometry x="290.46000000000004" y="90" width="80" height="80" as="geometry"/>
                </mxCell>
                <mxCell id="1041" style="edgeStyle=none;html=1;entryX=0;entryY=0.5;entryDx=0;entryDy=0;exitX=1;exitY=0.5;exitDx=0;exitDy=0;" edge="1" parent="1" source="1042" target="1044">
                    <mxGeometry relative="1" as="geometry">
                        <mxPoint x="120" y="680" as="sourcePoint"/>
                    </mxGeometry>
                </mxCell>
                <mxCell id="1042" value="Start" style="ellipse;whiteSpace=wrap;html=1;" vertex="1" parent="1">
                    <mxGeometry x="70" y="650" width="60" height="60" as="geometry"/>
                </mxCell>
                <mxCell id="1043" style="edgeStyle=none;html=1;exitX=1;exitY=0.5;exitDx=0;exitDy=0;entryX=0;entryY=0.5;entryDx=0;entryDy=0;" edge="1" parent="1" source="1044" target="1046">
                    <mxGeometry relative="1" as="geometry"/>
                </mxCell>
                <mxCell id="1044" value="User" style="whiteSpace=wrap;html=1;" vertex="1" parent="1">
                    <mxGeometry x="170" y="650" width="120" height="60" as="geometry"/>
                </mxCell>
                <mxCell id="1045" style="edgeStyle=none;html=1;exitX=1;exitY=0.5;exitDx=0;exitDy=0;entryX=0;entryY=0.5;entryDx=0;entryDy=0;" edge="1" parent="1" source="1046" target="1048">
                    <mxGeometry relative="1" as="geometry">
                        <mxPoint x="550" y="680.0000000000002" as="targetPoint"/>
                    </mxGeometry>
                </mxCell>
                <mxCell id="1046" value="Create okr" style="shape=parallelogram;perimeter=parallelogramPerimeter;whiteSpace=wrap;html=1;fixedSize=1;" vertex="1" parent="1">
                    <mxGeometry x="310" y="650" width="120" height="60" as="geometry"/>
                </mxCell>
                <mxCell id="1047" style="edgeStyle=none;html=1;exitX=1;exitY=0.5;exitDx=0;exitDy=0;entryX=0;entryY=0.5;entryDx=0;entryDy=0;" edge="1" parent="1" source="1048" target="1051">
                    <mxGeometry relative="1" as="geometry"/>
                </mxCell>
                <mxCell id="1048" value="new okr" style="whiteSpace=wrap;html=1;" vertex="1" parent="1">
                    <mxGeometry x="460" y="650" width="120" height="60" as="geometry"/>
                </mxCell>
                <mxCell id="1049" style="edgeStyle=none;html=1;exitX=0.5;exitY=1;exitDx=0;exitDy=0;entryX=0.5;entryY=0;entryDx=0;entryDy=0;" edge="1" parent="1" source="1127" target="1056">
                    <mxGeometry relative="1" as="geometry">
                        <Array as="points"/>
                    </mxGeometry>
                </mxCell>
                <mxCell id="1050" value="in duration" style="edgeLabel;html=1;align=center;verticalAlign=middle;resizable=0;points=[];" connectable="0" vertex="1" parent="1049">
                    <mxGeometry x="-0.2" y="1" relative="1" as="geometry">
                        <mxPoint as="offset"/>
                    </mxGeometry>
                </mxCell>
                <mxCell id="1051" value="leader review" style="shape=parallelogram;perimeter=parallelogramPerimeter;whiteSpace=wrap;html=1;fixedSize=1;" vertex="1" parent="1">
                    <mxGeometry x="599.9999999999999" y="650" width="120" height="60" as="geometry"/>
                </mxCell>
                <mxCell id="1052" style="edgeStyle=none;html=1;exitX=1;exitY=0.5;exitDx=0;exitDy=0;entryX=0;entryY=0.5;entryDx=0;entryDy=0;" edge="1" parent="1" source="1056" target="1060">
                    <mxGeometry relative="1" as="geometry">
                        <mxPoint x="818.13" y="940" as="targetPoint"/>
                    </mxGeometry>
                </mxCell>
                <mxCell id="1053" value="aprovel" style="edgeLabel;html=1;align=center;verticalAlign=middle;resizable=0;points=[];" vertex="1" connectable="0" parent="1052">
                    <mxGeometry x="-0.2891" y="-1" relative="1" as="geometry">
                        <mxPoint x="1" as="offset"/>
                    </mxGeometry>
                </mxCell>
                <mxCell id="1054" style="edgeStyle=none;html=1;exitX=0;exitY=0.5;exitDx=0;exitDy=0;entryX=0.435;entryY=1.055;entryDx=0;entryDy=0;entryPerimeter=0;" edge="1" parent="1" source="1056" target="1058">
                    <mxGeometry relative="1" as="geometry">
                        <mxPoint x="705" y="810" as="targetPoint"/>
                        <Array as="points">
                            <mxPoint x="654" y="810"/>
                        </Array>
                    </mxGeometry>
                </mxCell>
                <mxCell id="1055" value="Cancel" style="edgeLabel;html=1;align=center;verticalAlign=middle;resizable=0;points=[];" vertex="1" connectable="0" parent="1054">
                    <mxGeometry x="0.3338" y="3" relative="1" as="geometry">
                        <mxPoint x="22" y="-3" as="offset"/>
                    </mxGeometry>
                </mxCell>
                <mxCell id="1056" value="approved" style="rhombus;whiteSpace=wrap;html=1;" vertex="1" parent="1">
                    <mxGeometry x="819.9999999999999" y="770" width="80" height="80" as="geometry"/>
                </mxCell>
                <mxCell id="1057" style="edgeStyle=none;html=1;exitX=0.5;exitY=0;exitDx=0;exitDy=0;entryX=0.5;entryY=1;entryDx=0;entryDy=0;" edge="1" parent="1" source="1058" target="1051">
                    <mxGeometry relative="1" as="geometry"/>
                </mxCell>
                <mxCell id="1058" value="modify okr" style="shape=parallelogram;perimeter=parallelogramPerimeter;whiteSpace=wrap;html=1;fixedSize=1;" vertex="1" parent="1">
                    <mxGeometry x="614.9999999999999" y="730" width="90" height="40" as="geometry"/>
                </mxCell>
                <mxCell id="1059" style="edgeStyle=none;html=1;exitX=0.5;exitY=0;exitDx=0;exitDy=0;entryX=0;entryY=0.5;entryDx=0;entryDy=0;" edge="1" parent="1" source="1060" target="1065">
                    <mxGeometry relative="1" as="geometry">
                        <Array as="points">
                            <mxPoint x="1070" y="680"/>
                        </Array>
                    </mxGeometry>
                </mxCell>
                <mxCell id="1060" value="manager review" style="shape=parallelogram;perimeter=parallelogramPerimeter;whiteSpace=wrap;html=1;fixedSize=1;" vertex="1" parent="1">
                    <mxGeometry x="1008.1300000000001" y="780" width="120" height="60" as="geometry"/>
                </mxCell>
                <mxCell id="1061" style="edgeStyle=none;html=1;exitX=0.5;exitY=1;exitDx=0;exitDy=0;entryX=1;entryY=0.5;entryDx=0;entryDy=0;" edge="1" parent="1" source="1065" target="1067">
                    <mxGeometry relative="1" as="geometry">
                        <mxPoint x="1300" y="810" as="targetPoint"/>
                        <Array as="points">
                            <mxPoint x="1300" y="810"/>
                        </Array>
                    </mxGeometry>
                </mxCell>
                <mxCell id="1062" value="cancel" style="edgeLabel;html=1;align=center;verticalAlign=middle;resizable=0;points=[];" vertex="1" connectable="0" parent="1061">
                    <mxGeometry x="-0.253" y="1" relative="1" as="geometry">
                        <mxPoint as="offset"/>
                    </mxGeometry>
                </mxCell>
                <mxCell id="1063" style="edgeStyle=none;html=1;exitX=1;exitY=0.5;exitDx=0;exitDy=0;entryX=0;entryY=0.5;entryDx=0;entryDy=0;" edge="1" parent="1" source="1065" target="1069">
                    <mxGeometry relative="1" as="geometry">
                        <mxPoint x="1448.13" y="560" as="targetPoint"/>
                    </mxGeometry>
                </mxCell>
                <mxCell id="1064" value="approvel" style="edgeLabel;html=1;align=center;verticalAlign=middle;resizable=0;points=[];" vertex="1" connectable="0" parent="1063">
                    <mxGeometry x="-0.1917" relative="1" as="geometry">
                        <mxPoint as="offset"/>
                    </mxGeometry>
                </mxCell>
                <mxCell id="1065" value="approved" style="rhombus;whiteSpace=wrap;html=1;" vertex="1" parent="1">
                    <mxGeometry x="1258.13" y="640" width="80" height="80" as="geometry"/>
                </mxCell>
                <mxCell id="1066" style="edgeStyle=none;html=1;exitX=0;exitY=0.5;exitDx=0;exitDy=0;entryX=1;entryY=0.5;entryDx=0;entryDy=0;" edge="1" parent="1" source="1067" target="1060">
                    <mxGeometry relative="1" as="geometry"/>
                </mxCell>
                <mxCell id="1067" value="modify okr" style="shape=parallelogram;perimeter=parallelogramPerimeter;whiteSpace=wrap;html=1;fixedSize=1;" vertex="1" parent="1">
                    <mxGeometry x="1148.13" y="790" width="90" height="40" as="geometry"/>
                </mxCell>
                <mxCell id="1068" style="edgeStyle=none;html=1;exitX=1;exitY=0.5;exitDx=0;exitDy=0;entryX=0;entryY=0.5;entryDx=0;entryDy=0;" edge="1" parent="1" source="1069" target="1071">
                    <mxGeometry relative="1" as="geometry"/>
                </mxCell>
                <mxCell id="1069" value="resolve okr" style="shape=parallelogram;perimeter=parallelogramPerimeter;whiteSpace=wrap;html=1;fixedSize=1;" vertex="1" parent="1">
                    <mxGeometry x="1438.13" y="650" width="120" height="60" as="geometry"/>
                </mxCell>
                <mxCell id="1070" style="edgeStyle=none;html=1;exitX=1;exitY=0.5;exitDx=0;exitDy=0;entryX=0;entryY=0.5;entryDx=0;entryDy=0;" edge="1" parent="1" source="1071" target="1072">
                    <mxGeometry relative="1" as="geometry"/>
                </mxCell>
                <mxCell id="1071" value="update report/proof" style="shape=parallelogram;perimeter=parallelogramPerimeter;whiteSpace=wrap;html=1;fixedSize=1;" vertex="1" parent="1">
                    <mxGeometry x="1600" y="650" width="130" height="60" as="geometry"/>
                </mxCell>
                <mxCell id="1072" value="leader confirmation" style="shape=parallelogram;perimeter=parallelogramPerimeter;whiteSpace=wrap;html=1;fixedSize=1;" vertex="1" parent="1">
                    <mxGeometry x="1761.87" y="650" width="140" height="60" as="geometry"/>
                </mxCell>
                <mxCell id="1073" style="edgeStyle=none;html=1;exitX=0;exitY=0.5;exitDx=0;exitDy=0;entryX=0.5;entryY=1;entryDx=0;entryDy=0;" edge="1" parent="1" source="1077" target="1079">
                    <mxGeometry relative="1" as="geometry">
                        <mxPoint x="1871.87" y="830" as="targetPoint"/>
                        <Array as="points">
                            <mxPoint x="1832" y="830"/>
                        </Array>
                    </mxGeometry>
                </mxCell>
                <mxCell id="1074" value="cancel" style="edgeLabel;html=1;align=center;verticalAlign=middle;resizable=0;points=[];" vertex="1" connectable="0" parent="1073">
                    <mxGeometry x="-0.2182" y="1" relative="1" as="geometry">
                        <mxPoint as="offset"/>
                    </mxGeometry>
                </mxCell>
                <mxCell id="1075" style="edgeStyle=none;html=1;exitX=1;exitY=0.5;exitDx=0;exitDy=0;entryX=0;entryY=0.5;entryDx=0;entryDy=0;" edge="1" parent="1" source="1077" target="1080">
                    <mxGeometry relative="1" as="geometry">
                        <mxPoint x="2021.87" y="900" as="targetPoint"/>
                    </mxGeometry>
                </mxCell>
                <mxCell id="1076" value="confirm" style="edgeLabel;html=1;align=center;verticalAlign=middle;resizable=0;points=[];" vertex="1" connectable="0" parent="1075">
                    <mxGeometry x="0.2364" relative="1" as="geometry">
                        <mxPoint x="-10" as="offset"/>
                    </mxGeometry>
                </mxCell>
                <mxCell id="1077" value="confirm" style="rhombus;whiteSpace=wrap;html=1;" vertex="1" parent="1">
                    <mxGeometry x="1966.87" y="790" width="80" height="80" as="geometry"/>
                </mxCell>
                <mxCell id="1078" style="edgeStyle=none;html=1;exitX=0.5;exitY=0;exitDx=0;exitDy=0;entryX=0.5;entryY=1;entryDx=0;entryDy=0;" edge="1" parent="1" source="1079" target="1072">
                    <mxGeometry relative="1" as="geometry"/>
                </mxCell>
                <mxCell id="1079" value="update report/proof" style="shape=parallelogram;perimeter=parallelogramPerimeter;whiteSpace=wrap;html=1;fixedSize=1;" vertex="1" parent="1">
                    <mxGeometry x="1781.87" y="740" width="100" height="50" as="geometry"/>
                </mxCell>
                <mxCell id="1080" value="manager confirmation" style="shape=parallelogram;perimeter=parallelogramPerimeter;whiteSpace=wrap;html=1;fixedSize=1;" vertex="1" parent="1">
                    <mxGeometry x="2133.74" y="800" width="150" height="60" as="geometry"/>
                </mxCell>
                <mxCell id="1081" style="edgeStyle=none;html=1;exitX=0.5;exitY=0;exitDx=0;exitDy=0;entryX=0;entryY=0.5;entryDx=0;entryDy=0;" edge="1" parent="1" source="1080" target="1086">
                    <mxGeometry relative="1" as="geometry">
                        <mxPoint x="2268.74" y="680" as="sourcePoint"/>
                        <Array as="points">
                            <mxPoint x="2210" y="680"/>
                        </Array>
                    </mxGeometry>
                </mxCell>
                <mxCell id="1082" style="edgeStyle=none;html=1;exitX=0.5;exitY=1;exitDx=0;exitDy=0;entryX=0.5;entryY=0;entryDx=0;entryDy=0;" edge="1" parent="1" source="1086" target="1088">
                    <mxGeometry relative="1" as="geometry">
                        <mxPoint x="2461.87" y="810" as="targetPoint"/>
                        <Array as="points"/>
                    </mxGeometry>
                </mxCell>
                <mxCell id="1083" value="cancel" style="edgeLabel;html=1;align=center;verticalAlign=middle;resizable=0;points=[];" vertex="1" connectable="0" parent="1082">
                    <mxGeometry x="-0.2182" y="1" relative="1" as="geometry">
                        <mxPoint as="offset"/>
                    </mxGeometry>
                </mxCell>
                <mxCell id="1084" style="edgeStyle=none;html=1;exitX=1;exitY=0.5;exitDx=0;exitDy=0;entryX=0;entryY=0.5;entryDx=0;entryDy=0;" edge="1" parent="1" source="1086" target="1090">
                    <mxGeometry relative="1" as="geometry"/>
                </mxCell>
                <mxCell id="1085" value="confirm" style="edgeLabel;html=1;align=center;verticalAlign=middle;resizable=0;points=[];" vertex="1" connectable="0" parent="1084">
                    <mxGeometry x="-0.2354" relative="1" as="geometry">
                        <mxPoint x="8" as="offset"/>
                    </mxGeometry>
                </mxCell>
                <mxCell id="1086" value="confirm" style="rhombus;whiteSpace=wrap;html=1;" vertex="1" parent="1">
                    <mxGeometry x="2308.74" y="640" width="80" height="80" as="geometry"/>
                </mxCell>
                <mxCell id="1087" style="edgeStyle=none;html=1;exitX=0;exitY=0.5;exitDx=0;exitDy=0;entryX=1;entryY=0.5;entryDx=0;entryDy=0;" edge="1" parent="1" source="1088" target="1080">
                    <mxGeometry relative="1" as="geometry">
                        <mxPoint x="2063.74" y="940" as="targetPoint"/>
                    </mxGeometry>
                </mxCell>
                <mxCell id="1088" value="update report/proof" style="shape=parallelogram;perimeter=parallelogramPerimeter;whiteSpace=wrap;html=1;fixedSize=1;" vertex="1" parent="1">
                    <mxGeometry x="2301.87" y="805" width="100" height="50" as="geometry"/>
                </mxCell>
                <mxCell id="1089" style="edgeStyle=none;html=1;exitX=1;exitY=0.5;exitDx=0;exitDy=0;entryX=0;entryY=0.5;entryDx=0;entryDy=0;" edge="1" parent="1" source="1090" target="1113">
                    <mxGeometry relative="1" as="geometry"/>
                </mxCell>
                <mxCell id="1090" value="QA verification" style="shape=parallelogram;perimeter=parallelogramPerimeter;whiteSpace=wrap;html=1;fixedSize=1;" vertex="1" parent="1">
                    <mxGeometry x="2461.87" y="650" width="120" height="60" as="geometry"/>
                </mxCell>
                <mxCell id="1091" style="edgeStyle=none;html=1;exitX=0.5;exitY=1;exitDx=0;exitDy=0;entryX=0.5;entryY=0;entryDx=0;entryDy=0;" edge="1" parent="1" source="1092" target="1051">
                    <mxGeometry relative="1" as="geometry"/>
                </mxCell>
                <mxCell id="1092" value="leader" style="rounded=1;whiteSpace=wrap;html=1;" vertex="1" parent="1">
                    <mxGeometry x="610.9399999999999" y="560" width="98.13" height="40" as="geometry"/>
                </mxCell>
                <mxCell id="1093" style="edgeStyle=none;html=1;exitX=0.5;exitY=0;exitDx=0;exitDy=0;entryX=0.5;entryY=1;entryDx=0;entryDy=0;" edge="1" parent="1" source="1094" target="1060">
                    <mxGeometry relative="1" as="geometry"/>
                </mxCell>
                <mxCell id="1094" value="manager" style="rounded=1;whiteSpace=wrap;html=1;" vertex="1" parent="1">
                    <mxGeometry x="1018.1300000000001" y="890" width="100" height="40" as="geometry"/>
                </mxCell>
                <mxCell id="1095" style="edgeStyle=none;html=1;exitX=0.5;exitY=1;exitDx=0;exitDy=0;entryX=0.5;entryY=0;entryDx=0;entryDy=0;" edge="1" parent="1" source="1096" target="1069">
                    <mxGeometry relative="1" as="geometry"/>
                </mxCell>
                <mxCell id="1096" value="user" style="rounded=1;whiteSpace=wrap;html=1;" vertex="1" parent="1">
                    <mxGeometry x="1448.13" y="560" width="100" height="40" as="geometry"/>
                </mxCell>
                <mxCell id="1097" style="edgeStyle=none;html=1;exitX=0.5;exitY=0;exitDx=0;exitDy=0;entryX=0.5;entryY=1;entryDx=0;entryDy=0;" edge="1" parent="1" source="1098" target="1067">
                    <mxGeometry relative="1" as="geometry"/>
                </mxCell>
                <mxCell id="1098" value="user" style="rounded=1;whiteSpace=wrap;html=1;" vertex="1" parent="1">
                    <mxGeometry x="1153.13" y="890" width="80" height="40" as="geometry"/>
                </mxCell>
                <mxCell id="1099" style="edgeStyle=none;html=1;exitX=1;exitY=0.5;exitDx=0;exitDy=0;entryX=0;entryY=0.5;entryDx=0;entryDy=0;" edge="1" parent="1" source="1100" target="1058">
                    <mxGeometry relative="1" as="geometry"/>
                </mxCell>
                <mxCell id="1100" value="user" style="rounded=1;whiteSpace=wrap;html=1;" vertex="1" parent="1">
                    <mxGeometry x="479.9999999999999" y="730" width="90" height="40" as="geometry"/>
                </mxCell>
                <mxCell id="1101" style="edgeStyle=none;html=1;exitX=1;exitY=0.5;exitDx=0;exitDy=0;entryX=0;entryY=0.5;entryDx=0;entryDy=0;" edge="1" parent="1" source="1102" target="1079">
                    <mxGeometry relative="1" as="geometry"/>
                </mxCell>
                <mxCell id="1102" value="User" style="rounded=1;whiteSpace=wrap;html=1;" vertex="1" parent="1">
                    <mxGeometry x="1650" y="745" width="80" height="40" as="geometry"/>
                </mxCell>
                <mxCell id="1103" style="edgeStyle=none;html=1;exitX=0.5;exitY=1;exitDx=0;exitDy=0;entryX=0.5;entryY=0;entryDx=0;entryDy=0;" edge="1" parent="1" source="1104" target="1072">
                    <mxGeometry relative="1" as="geometry"/>
                </mxCell>
                <mxCell id="1104" value="leader" style="rounded=1;whiteSpace=wrap;html=1;" vertex="1" parent="1">
                    <mxGeometry x="1781.87" y="560" width="98.13" height="40" as="geometry"/>
                </mxCell>
                <mxCell id="1105" style="edgeStyle=none;html=1;exitX=0.5;exitY=0;exitDx=0;exitDy=0;entryX=0.5;entryY=1;entryDx=0;entryDy=0;" edge="1" parent="1" source="1106" target="1080">
                    <mxGeometry relative="1" as="geometry"/>
                </mxCell>
                <mxCell id="1106" value="manager" style="rounded=1;whiteSpace=wrap;html=1;" vertex="1" parent="1">
                    <mxGeometry x="2158.1099999999997" y="900" width="101.26" height="40" as="geometry"/>
                </mxCell>
                <mxCell id="1107" style="edgeStyle=none;html=1;exitX=0.5;exitY=0;exitDx=0;exitDy=0;entryX=0.5;entryY=1;entryDx=0;entryDy=0;" edge="1" parent="1" source="1108" target="1088">
                    <mxGeometry relative="1" as="geometry"/>
                </mxCell>
                <mxCell id="1108" value="User" style="rounded=1;whiteSpace=wrap;html=1;" vertex="1" parent="1">
                    <mxGeometry x="2311.87" y="900" width="80" height="40" as="geometry"/>
                </mxCell>
                <mxCell id="1109" style="edgeStyle=none;html=1;exitX=0.5;exitY=1;exitDx=0;exitDy=0;entryX=0.25;entryY=0;entryDx=0;entryDy=0;" edge="1" parent="1" source="1110" target="1090">
                    <mxGeometry relative="1" as="geometry"/>
                </mxCell>
                <mxCell id="1110" value="QA" style="rounded=1;whiteSpace=wrap;html=1;" vertex="1" parent="1">
                    <mxGeometry x="2462.4" y="560" width="60" height="40" as="geometry"/>
                </mxCell>
                <mxCell id="1111" style="edgeStyle=none;html=1;exitX=1;exitY=0.5;exitDx=0;exitDy=0;entryX=0;entryY=0.5;entryDx=0;entryDy=0;" edge="1" parent="1" source="1113" target="1134">
                    <mxGeometry relative="1" as="geometry">
                        <mxPoint x="2841.74" y="680" as="targetPoint"/>
                        <mxPoint x="2741.74" y="680" as="sourcePoint"/>
                    </mxGeometry>
                </mxCell>
                <mxCell id="1112" value="verify" style="edgeLabel;html=1;align=center;verticalAlign=middle;resizable=0;points=[];" vertex="1" connectable="0" parent="1111">
                    <mxGeometry x="0.2304" y="-2" relative="1" as="geometry">
                        <mxPoint x="-11" y="-2" as="offset"/>
                    </mxGeometry>
                </mxCell>
                <mxCell id="1113" value="verify" style="rhombus;whiteSpace=wrap;html=1;" vertex="1" parent="1">
                    <mxGeometry x="2620" y="640" width="80" height="80" as="geometry"/>
                </mxCell>
                <mxCell id="1114" style="edgeStyle=none;html=1;exitX=1;exitY=0.5;exitDx=0;exitDy=0;entryX=0;entryY=0.5;entryDx=0;entryDy=0;" edge="1" parent="1" source="1115" target="1117">
                    <mxGeometry relative="1" as="geometry"/>
                </mxCell>
                <mxCell id="1115" value="Start" style="ellipse;whiteSpace=wrap;html=1;" vertex="1" parent="1">
                    <mxGeometry x="2149.87" y="2040" width="80" height="80" as="geometry"/>
                </mxCell>
                <mxCell id="1116" style="edgeStyle=none;html=1;exitX=1;exitY=0.5;exitDx=0;exitDy=0;entryX=0;entryY=0.5;entryDx=0;entryDy=0;" edge="1" parent="1" source="1117" target="1119">
                    <mxGeometry relative="1" as="geometry"/>
                </mxCell>
                <mxCell id="1117" value="user" style="whiteSpace=wrap;html=1;" vertex="1" parent="1">
                    <mxGeometry x="2299.87" y="2060" width="80" height="40" as="geometry"/>
                </mxCell>
                <mxCell id="1118" style="edgeStyle=none;html=1;exitX=1;exitY=0.5;exitDx=0;exitDy=0;entryX=0;entryY=0.5;entryDx=0;entryDy=0;" edge="1" parent="1" source="1119" target="1122">
                    <mxGeometry relative="1" as="geometry"/>
                </mxCell>
                <mxCell id="1119" value="modify&amp;nbsp;" style="shape=parallelogram;perimeter=parallelogramPerimeter;whiteSpace=wrap;html=1;fixedSize=1;" vertex="1" parent="1">
                    <mxGeometry x="2433" y="2050" width="140" height="60" as="geometry"/>
                </mxCell>
                <mxCell id="1120" style="edgeStyle=none;html=1;exitX=0.5;exitY=1;exitDx=0;exitDy=0;entryX=0.426;entryY=1.071;entryDx=0;entryDy=0;entryPerimeter=0;" edge="1" parent="1" source="1122" target="1117">
                    <mxGeometry relative="1" as="geometry">
                        <Array as="points">
                            <mxPoint x="2682.13" y="2230"/>
                            <mxPoint x="2334.13" y="2230"/>
                        </Array>
                    </mxGeometry>
                </mxCell>
                <mxCell id="1121" value="denied" style="edgeLabel;html=1;align=center;verticalAlign=middle;resizable=0;points=[];" vertex="1" connectable="0" parent="1120">
                    <mxGeometry x="-0.0776" y="2" relative="1" as="geometry">
                        <mxPoint as="offset"/>
                    </mxGeometry>
                </mxCell>
                <mxCell id="1122" value="confirmed/verification okr's content" style="whiteSpace=wrap;html=1;" vertex="1" parent="1">
                    <mxGeometry x="2621.74" y="2050" width="120" height="60" as="geometry"/>
                </mxCell>
                <mxCell id="1123" value="related entity" style="rounded=1;whiteSpace=wrap;html=1;" vertex="1" parent="1">
                    <mxGeometry x="270.46000000000004" y="210" width="120" height="60" as="geometry"/>
                </mxCell>
                <mxCell id="1124" value="" style="edgeStyle=none;html=1;exitX=1;exitY=0.5;exitDx=0;exitDy=0;entryX=0;entryY=0.5;entryDx=0;entryDy=0;" edge="1" parent="1" source="1051" target="1127">
                    <mxGeometry relative="1" as="geometry">
                        <Array as="points"/>
                        <mxPoint x="710" y="680" as="sourcePoint"/>
                        <mxPoint x="860" y="770" as="targetPoint"/>
                    </mxGeometry>
                </mxCell>
                <mxCell id="1125" style="edgeStyle=orthogonalEdgeStyle;rounded=0;orthogonalLoop=1;jettySize=auto;html=1;exitX=0.5;exitY=0;exitDx=0;exitDy=0;entryX=1;entryY=0.5;entryDx=0;entryDy=0;" edge="1" parent="1" source="1127" target="1269">
                    <mxGeometry relative="1" as="geometry">
                        <mxPoint x="249.52999999999997" y="650" as="targetPoint"/>
                        <mxPoint x="879.53" y="650" as="sourcePoint"/>
                        <Array as="points">
                            <mxPoint x="860" y="510"/>
                        </Array>
                    </mxGeometry>
                </mxCell>
                <mxCell id="1126" value="expired" style="edgeLabel;html=1;align=center;verticalAlign=middle;resizable=0;points=[];" connectable="0" vertex="1" parent="1125">
                    <mxGeometry x="-0.2847" relative="1" as="geometry">
                        <mxPoint x="-139" as="offset"/>
                    </mxGeometry>
                </mxCell>
                <mxCell id="1127" value="Timeout date" style="rhombus;whiteSpace=wrap;html=1;" vertex="1" parent="1">
                    <mxGeometry x="800" y="650" width="120" height="60" as="geometry"/>
                </mxCell>
                <mxCell id="1128" style="edgeStyle=none;html=1;exitX=0.5;exitY=1;exitDx=0;exitDy=0;entryX=0.5;entryY=0;entryDx=0;entryDy=0;" edge="1" parent="1" source="1133" target="1077">
                    <mxGeometry relative="1" as="geometry">
                        <Array as="points"/>
                        <mxPoint x="2043.37" y="775" as="targetPoint"/>
                    </mxGeometry>
                </mxCell>
                <mxCell id="1129" value="in duration" style="edgeLabel;html=1;align=center;verticalAlign=middle;resizable=0;points=[];" connectable="0" vertex="1" parent="1128">
                    <mxGeometry x="-0.2" y="1" relative="1" as="geometry">
                        <mxPoint as="offset"/>
                    </mxGeometry>
                </mxCell>
                <mxCell id="1130" value="" style="edgeStyle=none;html=1;exitX=1;exitY=0.5;exitDx=0;exitDy=0;entryX=0;entryY=0.5;entryDx=0;entryDy=0;" edge="1" parent="1" source="1072" target="1133">
                    <mxGeometry relative="1" as="geometry">
                        <Array as="points"/>
                        <mxPoint x="1893.37" y="685" as="sourcePoint"/>
                        <mxPoint x="2043.37" y="775" as="targetPoint"/>
                    </mxGeometry>
                </mxCell>
                <mxCell id="1131" style="edgeStyle=orthogonalEdgeStyle;rounded=0;orthogonalLoop=1;jettySize=auto;html=1;exitX=1;exitY=0.5;exitDx=0;exitDy=0;entryX=0.25;entryY=0;entryDx=0;entryDy=0;" edge="1" parent="1" source="1133" target="1080">
                    <mxGeometry relative="1" as="geometry">
                        <mxPoint x="2221.37" y="785" as="targetPoint"/>
                    </mxGeometry>
                </mxCell>
                <mxCell id="1132" value="expired" style="edgeLabel;html=1;align=center;verticalAlign=middle;resizable=0;points=[];" connectable="0" vertex="1" parent="1131">
                    <mxGeometry x="-0.2847" relative="1" as="geometry">
                        <mxPoint x="-53" as="offset"/>
                    </mxGeometry>
                </mxCell>
                <mxCell id="1133" value="Timeout date" style="rhombus;whiteSpace=wrap;html=1;" vertex="1" parent="1">
                    <mxGeometry x="1946.87" y="650" width="120" height="60" as="geometry"/>
                </mxCell>
                <mxCell id="1134" value="manager final confirmation" style="shape=parallelogram;perimeter=parallelogramPerimeter;whiteSpace=wrap;html=1;fixedSize=1;" vertex="1" parent="1">
                    <mxGeometry x="2741.74" y="650" width="178.26" height="60" as="geometry"/>
                </mxCell>
                <mxCell id="1135" style="edgeStyle=none;html=1;exitX=1;exitY=0.5;exitDx=0;exitDy=0;entryX=0;entryY=0.5;entryDx=0;entryDy=0;" edge="1" parent="1" source="1134" target="1257">
                    <mxGeometry relative="1" as="geometry">
                        <mxPoint x="3030.13" y="680" as="targetPoint"/>
                        <mxPoint x="2930" y="680" as="sourcePoint"/>
                    </mxGeometry>
                </mxCell>
                <mxCell id="1136" value="confirm" style="edgeLabel;html=1;align=center;verticalAlign=middle;resizable=0;points=[];" connectable="0" vertex="1" parent="1135">
                    <mxGeometry x="-0.2354" relative="1" as="geometry">
                        <mxPoint x="8" as="offset"/>
                    </mxGeometry>
                </mxCell>
                <mxCell id="1137" style="edgeStyle=none;html=1;exitX=0.5;exitY=0;exitDx=0;exitDy=0;entryX=0.5;entryY=1;entryDx=0;entryDy=0;" edge="1" parent="1" source="1138" target="1134">
                    <mxGeometry relative="1" as="geometry"/>
                </mxCell>
                <mxCell id="1138" value="manager" style="rounded=1;whiteSpace=wrap;html=1;" vertex="1" parent="1">
                    <mxGeometry x="2780.24" y="750" width="101.26" height="40" as="geometry"/>
                </mxCell>
                <mxCell id="1139" value="end" style="ellipse;whiteSpace=wrap;html=1;" vertex="1" parent="1">
                    <mxGeometry x="3180" y="640" width="80" height="80" as="geometry"/>
                </mxCell>
                <mxCell id="1140" value="" style="group" connectable="0" vertex="1" parent="1">
                    <mxGeometry x="170" y="1982.0500000000002" width="733.5999999999999" height="250" as="geometry"/>
                </mxCell>
                <mxCell id="1141" value="Start" style="ellipse;whiteSpace=wrap;html=1;" vertex="1" parent="1140">
                    <mxGeometry x="4.530000000000001" y="60" width="80" height="80" as="geometry"/>
                </mxCell>
                <mxCell id="1142" value="User" style="whiteSpace=wrap;html=1;" vertex="1" parent="1140">
                    <mxGeometry x="124.53" y="70" width="120" height="60" as="geometry"/>
                </mxCell>
                <mxCell id="1143" style="edgeStyle=none;html=1;exitX=1;exitY=0.5;exitDx=0;exitDy=0;entryX=0;entryY=0.5;entryDx=0;entryDy=0;" edge="1" parent="1140" source="1141" target="1142">
                    <mxGeometry relative="1" as="geometry"/>
                </mxCell>
                <mxCell id="1144" value="modify" style="shape=parallelogram;perimeter=parallelogramPerimeter;whiteSpace=wrap;html=1;fixedSize=1;" vertex="1" parent="1140">
                    <mxGeometry x="276.79999999999995" y="70" width="120" height="60" as="geometry"/>
                </mxCell>
                <mxCell id="1145" style="edgeStyle=none;html=1;exitX=1;exitY=0.5;exitDx=0;exitDy=0;entryX=0;entryY=0.5;entryDx=0;entryDy=0;" edge="1" parent="1140" source="1142" target="1144">
                    <mxGeometry relative="1" as="geometry"/>
                </mxCell>
                <mxCell id="1146" value="End" style="ellipse;whiteSpace=wrap;html=1;" vertex="1" parent="1140">
                    <mxGeometry x="599.9999999999999" y="60" width="80" height="80" as="geometry"/>
                </mxCell>
                <mxCell id="1147" value="new okr's content" style="whiteSpace=wrap;html=1;" vertex="1" parent="1140">
                    <mxGeometry x="436.79999999999995" y="70" width="120" height="60" as="geometry"/>
                </mxCell>
                <mxCell id="1148" style="edgeStyle=none;html=1;exitX=1;exitY=0.5;exitDx=0;exitDy=0;entryX=0;entryY=0.5;entryDx=0;entryDy=0;" edge="1" parent="1140" source="1144" target="1147">
                    <mxGeometry relative="1" as="geometry"/>
                </mxCell>
                <mxCell id="1149" style="edgeStyle=none;html=1;exitX=1;exitY=0.5;exitDx=0;exitDy=0;entryX=0;entryY=0.5;entryDx=0;entryDy=0;" edge="1" parent="1140" source="1147" target="1146">
                    <mxGeometry relative="1" as="geometry">
                        <mxPoint x="534.53" y="100.1052631578948" as="targetPoint"/>
                    </mxGeometry>
                </mxCell>
                <mxCell id="1150" value="&lt;span style=&quot;font-size: 23px;&quot;&gt;sửa okr khi mới tạo trong khoảng thời gian đợi được approved&lt;/span&gt;" style="text;html=1;align=center;verticalAlign=middle;resizable=0;points=[];autosize=1;strokeColor=none;fillColor=none;" vertex="1" parent="1140">
                    <mxGeometry x="30.00000000000003" width="660" height="40" as="geometry"/>
                </mxCell>
                <mxCell id="1151" value="&lt;span style=&quot;font-size: 23px;&quot;&gt;Sửa nội dung của okr sau khi đã được confirm&amp;nbsp;&lt;/span&gt;" style="text;html=1;align=center;verticalAlign=middle;resizable=0;points=[];autosize=1;strokeColor=none;fillColor=none;" vertex="1" parent="1">
                    <mxGeometry x="2201" y="1980" width="500" height="40" as="geometry"/>
                </mxCell>
                <mxCell id="1152" value="" style="group" connectable="0" vertex="1" parent="1">
                    <mxGeometry x="1190" y="1980" width="667.6599999999996" height="189" as="geometry"/>
                </mxCell>
                <mxCell id="1153" value="Start" style="ellipse;whiteSpace=wrap;html=1;" vertex="1" parent="1152">
                    <mxGeometry y="60" width="80" height="80" as="geometry"/>
                </mxCell>
                <mxCell id="1154" value="user" style="whiteSpace=wrap;html=1;" vertex="1" parent="1152">
                    <mxGeometry x="150" y="80" width="80" height="40" as="geometry"/>
                </mxCell>
                <mxCell id="1155" style="edgeStyle=none;html=1;exitX=1;exitY=0.5;exitDx=0;exitDy=0;entryX=0;entryY=0.5;entryDx=0;entryDy=0;" edge="1" parent="1152" source="1153" target="1154">
                    <mxGeometry relative="1" as="geometry"/>
                </mxCell>
                <mxCell id="1156" value="modify&amp;nbsp;" style="shape=parallelogram;perimeter=parallelogramPerimeter;whiteSpace=wrap;html=1;fixedSize=1;" vertex="1" parent="1152">
                    <mxGeometry x="283.1300000000001" y="70" width="140" height="60" as="geometry"/>
                </mxCell>
                <mxCell id="1157" style="edgeStyle=none;html=1;exitX=1;exitY=0.5;exitDx=0;exitDy=0;entryX=0;entryY=0.5;entryDx=0;entryDy=0;" edge="1" parent="1152" source="1154" target="1156">
                    <mxGeometry relative="1" as="geometry"/>
                </mxCell>
                <mxCell id="1158" style="edgeStyle=none;html=1;exitX=0.5;exitY=1;exitDx=0;exitDy=0;entryX=0.5;entryY=1;entryDx=0;entryDy=0;" edge="1" parent="1152" source="1160" target="1154">
                    <mxGeometry relative="1" as="geometry">
                        <mxPoint x="200.8199999999997" y="190.4000000000001" as="targetPoint"/>
                        <mxPoint x="608.1300000000003" y="169" as="sourcePoint"/>
                        <Array as="points">
                            <mxPoint x="532.26" y="189"/>
                            <mxPoint x="190.26" y="189"/>
                        </Array>
                    </mxGeometry>
                </mxCell>
                <mxCell id="1159" value="Denied" style="edgeLabel;html=1;align=center;verticalAlign=middle;resizable=0;points=[];" connectable="0" vertex="1" parent="1158">
                    <mxGeometry x="-0.0879" y="-1" relative="1" as="geometry">
                        <mxPoint as="offset"/>
                    </mxGeometry>
                </mxCell>
                <mxCell id="1160" value="approved process okr's proof/report" style="whiteSpace=wrap;html=1;" vertex="1" parent="1152">
                    <mxGeometry x="471.8700000000001" y="70" width="120" height="60" as="geometry"/>
                </mxCell>
                <mxCell id="1161" style="edgeStyle=none;html=1;exitX=1;exitY=0.5;exitDx=0;exitDy=0;entryX=0;entryY=0.5;entryDx=0;entryDy=0;" edge="1" parent="1152" source="1156" target="1160">
                    <mxGeometry relative="1" as="geometry"/>
                </mxCell>
                <mxCell id="1162" value="&lt;span style=&quot;font-size: 23px;&quot;&gt;Thêm bằng chứng/tiến độ/báo cáo trước khi được approved&lt;/span&gt;" style="text;html=1;align=center;verticalAlign=middle;resizable=0;points=[];autosize=1;strokeColor=none;fillColor=none;" vertex="1" parent="1152">
                    <mxGeometry x="27.659999999999854" width="640" height="40" as="geometry"/>
                </mxCell>
                <mxCell id="1227" value="&lt;span style=&quot;font-size: 23px;&quot;&gt;Các thành phần người dùng trong hệ thống&lt;br&gt;&lt;/span&gt;" style="text;html=1;align=center;verticalAlign=middle;resizable=0;points=[];autosize=1;strokeColor=none;fillColor=none;" vertex="1" parent="1">
                    <mxGeometry x="520.0000000000001" y="30" width="470" height="40" as="geometry"/>
                </mxCell>
                <mxCell id="1228" value="&lt;span style=&quot;font-size: 23px;&quot;&gt;Hình dạng và ý nghĩa các khối&lt;br&gt;&lt;/span&gt;" style="text;html=1;align=center;verticalAlign=middle;resizable=0;points=[];autosize=1;strokeColor=none;fillColor=none;" vertex="1" parent="1">
                    <mxGeometry x="80" y="35" width="330" height="40" as="geometry"/>
                </mxCell>
                <mxCell id="1229" value="okr's content" style="whiteSpace=wrap;html=1;" vertex="1" parent="1">
                    <mxGeometry x="1619.2100000000003" y="1100" width="120" height="60" as="geometry"/>
                </mxCell>
                <mxCell id="1230" style="edgeStyle=none;html=1;exitX=1;exitY=0.5;exitDx=0;exitDy=0;entryX=0;entryY=0.5;entryDx=0;entryDy=0;" edge="1" parent="1" source="1232" target="1229">
                    <mxGeometry relative="1" as="geometry"/>
                </mxCell>
                <mxCell id="1231" style="edgeStyle=none;html=1;exitX=1;exitY=0.5;exitDx=0;exitDy=0;entryX=0;entryY=0.5;entryDx=0;entryDy=0;" edge="1" parent="1" source="1232" target="1233">
                    <mxGeometry relative="1" as="geometry">
                        <mxPoint x="1639.2100000000003" y="1150" as="targetPoint"/>
                    </mxGeometry>
                </mxCell>
                <mxCell id="1232" value="modify okr" style="shape=parallelogram;perimeter=parallelogramPerimeter;whiteSpace=wrap;html=1;fixedSize=1;" vertex="1" parent="1">
                    <mxGeometry x="1389.2100000000003" y="1150" width="120" height="60" as="geometry"/>
                </mxCell>
                <mxCell id="1233" value="okr's proof/report" style="whiteSpace=wrap;html=1;" vertex="1" parent="1">
                    <mxGeometry x="1619.2100000000003" y="1240" width="120" height="60" as="geometry"/>
                </mxCell>
                <mxCell id="1234" value="&lt;span style=&quot;font-size: 23px;&quot;&gt;Các thành phần có thể thay đổi khi sửa một OKR&lt;br&gt;&lt;/span&gt;" style="text;html=1;align=center;verticalAlign=middle;resizable=0;points=[];autosize=1;strokeColor=none;fillColor=none;" vertex="1" parent="1">
                    <mxGeometry x="1339.2100000000003" y="1040" width="520" height="40" as="geometry"/>
                </mxCell>
                <mxCell id="1235" value="(các nội dung cơ bản khi tạo okr)" style="text;html=1;align=center;verticalAlign=middle;resizable=0;points=[];autosize=1;strokeColor=none;fillColor=none;" vertex="1" parent="1">
                    <mxGeometry x="1589.21" y="1165" width="200" height="30" as="geometry"/>
                </mxCell>
                <mxCell id="1236" value="(Các bằng chứng và báo tiến độ)" style="text;html=1;align=center;verticalAlign=middle;resizable=0;points=[];autosize=1;strokeColor=none;fillColor=none;" vertex="1" parent="1">
                    <mxGeometry x="1589.21" y="1300" width="200" height="30" as="geometry"/>
                </mxCell>
                <mxCell id="1237" value="new okr" style="whiteSpace=wrap;html=1;" vertex="1" parent="1">
                    <mxGeometry x="2289.21" y="1100" width="120" height="60" as="geometry"/>
                </mxCell>
                <mxCell id="1238" style="edgeStyle=none;html=1;exitX=1;exitY=0.5;exitDx=0;exitDy=0;entryX=0;entryY=0.5;entryDx=0;entryDy=0;" edge="1" parent="1" source="1240" target="1237">
                    <mxGeometry relative="1" as="geometry"/>
                </mxCell>
                <mxCell id="1239" style="edgeStyle=none;html=1;exitX=1;exitY=0.5;exitDx=0;exitDy=0;entryX=0;entryY=0.5;entryDx=0;entryDy=0;" edge="1" parent="1" source="1240" target="1241">
                    <mxGeometry relative="1" as="geometry">
                        <mxPoint x="2309.21" y="1150" as="targetPoint"/>
                    </mxGeometry>
                </mxCell>
                <mxCell id="1240" value="okr" style="whiteSpace=wrap;html=1;" vertex="1" parent="1">
                    <mxGeometry x="2040.54" y="1270" width="120" height="60" as="geometry"/>
                </mxCell>
                <mxCell id="1241" value="approved okr" style="whiteSpace=wrap;html=1;" vertex="1" parent="1">
                    <mxGeometry x="2287.34" y="1210" width="120" height="60" as="geometry"/>
                </mxCell>
                <mxCell id="1242" value="&lt;span style=&quot;font-size: 23px;&quot;&gt;Các trạng thái của okr trong quy trình xét duyệt&lt;br&gt;&lt;/span&gt;" style="text;html=1;align=center;verticalAlign=middle;resizable=0;points=[];autosize=1;strokeColor=none;fillColor=none;" vertex="1" parent="1">
                    <mxGeometry x="2019.2100000000003" y="1040" width="500" height="40" as="geometry"/>
                </mxCell>
                <mxCell id="1243" value="okr mới tạo" style="text;html=1;align=center;verticalAlign=middle;resizable=0;points=[];autosize=1;strokeColor=none;fillColor=none;" vertex="1" parent="1">
                    <mxGeometry x="2309.21" y="1165" width="80" height="30" as="geometry"/>
                </mxCell>
                <mxCell id="1244" value="okr đã được chấp thuận" style="text;html=1;align=center;verticalAlign=middle;resizable=0;points=[];autosize=1;strokeColor=none;fillColor=none;" vertex="1" parent="1">
                    <mxGeometry x="2275.54" y="1270" width="150" height="30" as="geometry"/>
                </mxCell>
                <mxCell id="1245" value="confirmed okr" style="whiteSpace=wrap;html=1;" vertex="1" parent="1">
                    <mxGeometry x="2288.67" y="1320" width="120" height="60" as="geometry"/>
                </mxCell>
                <mxCell id="1246" value="verified okr" style="whiteSpace=wrap;html=1;" vertex="1" parent="1">
                    <mxGeometry x="2290.54" y="1430" width="120" height="60" as="geometry"/>
                </mxCell>
                <mxCell id="1247" value="okr đã được xác nhận bằng chứng/tiến độ" style="text;html=1;align=center;verticalAlign=middle;resizable=0;points=[];autosize=1;strokeColor=none;fillColor=none;" vertex="1" parent="1">
                    <mxGeometry x="2270.54" y="1380" width="250" height="30" as="geometry"/>
                </mxCell>
                <mxCell id="1248" style="edgeStyle=none;html=1;exitX=1;exitY=0.5;exitDx=0;exitDy=0;entryX=0;entryY=0.5;entryDx=0;entryDy=0;" edge="1" parent="1" source="1240" target="1245">
                    <mxGeometry relative="1" as="geometry">
                        <mxPoint x="2299.41" y="1280" as="targetPoint"/>
                        <mxPoint x="2170.41" y="1280" as="sourcePoint"/>
                    </mxGeometry>
                </mxCell>
                <mxCell id="1249" style="edgeStyle=none;html=1;exitX=1;exitY=0.5;exitDx=0;exitDy=0;entryX=0;entryY=0.5;entryDx=0;entryDy=0;" edge="1" parent="1" source="1240" target="1246">
                    <mxGeometry relative="1" as="geometry">
                        <mxPoint x="2299.41" y="1280" as="targetPoint"/>
                        <mxPoint x="2170.41" y="1280" as="sourcePoint"/>
                    </mxGeometry>
                </mxCell>
                <mxCell id="1250" value="okr đã được xác minh/kiểm tra" style="text;html=1;align=center;verticalAlign=middle;resizable=0;points=[];autosize=1;strokeColor=none;fillColor=none;" vertex="1" parent="1">
                    <mxGeometry x="2275.54" y="1490" width="190" height="30" as="geometry"/>
                </mxCell>
                <mxCell id="1251" value="&lt;font style=&quot;font-size: 30px;&quot;&gt;Quy trình tạo và xét duyệt okr của user&lt;/font&gt;" style="text;html=1;align=center;verticalAlign=middle;resizable=0;points=[];autosize=1;strokeColor=none;fillColor=none;" vertex="1" parent="1">
                    <mxGeometry x="1319.2099999999998" y="410" width="540" height="50" as="geometry"/>
                </mxCell>
                <mxCell id="1256" style="edgeStyle=orthogonalEdgeStyle;rounded=0;orthogonalLoop=1;jettySize=auto;html=1;exitX=1;exitY=0.5;exitDx=0;exitDy=0;entryX=0;entryY=0.5;entryDx=0;entryDy=0;" edge="1" parent="1" source="1257" target="1139">
                    <mxGeometry relative="1" as="geometry"/>
                </mxCell>
                <mxCell id="1257" value="OKR/KPI result" style="whiteSpace=wrap;html=1;" vertex="1" parent="1">
                    <mxGeometry x="3020" y="650" width="120" height="60" as="geometry"/>
                </mxCell>
                <mxCell id="1260" value="timeout đến reject&lt;br&gt;" style="text;html=1;align=center;verticalAlign=middle;resizable=0;points=[];autosize=1;strokeColor=#005700;fillColor=#008a00;fontColor=#ffffff;" vertex="1" parent="1">
                    <mxGeometry x="600" y="858" width="120" height="30" as="geometry"/>
                </mxCell>
                <mxCell id="1261" value="Quyền mở modify okr theo phân quyền manager" style="text;html=1;align=center;verticalAlign=middle;resizable=0;points=[];autosize=1;strokeColor=#005700;fillColor=#008a00;fontColor=#ffffff;" vertex="1" parent="1">
                    <mxGeometry x="1689.6799999999998" y="1650" width="280" height="30" as="geometry"/>
                </mxCell>
                <mxCell id="1262" value="đã confirm lại vs QA" style="text;html=1;align=center;verticalAlign=middle;resizable=0;points=[];autosize=1;strokeColor=#005700;fillColor=#008a00;fontColor=#ffffff;" vertex="1" parent="1">
                    <mxGeometry x="2481.87" y="930" width="130" height="30" as="geometry"/>
                </mxCell>
                <mxCell id="1267" value="Chỉ modify bằng chứng/kết quả" style="text;html=1;align=center;verticalAlign=middle;resizable=0;points=[];autosize=1;strokeColor=#005700;fillColor=#008a00;fontColor=#ffffff;" vertex="1" parent="1">
                    <mxGeometry x="2085.54" y="2200" width="190" height="30" as="geometry"/>
                </mxCell>
                <mxCell id="1268" style="edgeStyle=orthogonalEdgeStyle;rounded=0;orthogonalLoop=1;jettySize=auto;html=1;exitX=0;exitY=0.5;exitDx=0;exitDy=0;entryX=0.5;entryY=0;entryDx=0;entryDy=0;" edge="1" parent="1" source="1269" target="1044">
                    <mxGeometry relative="1" as="geometry"/>
                </mxCell>
                <mxCell id="1269" value="rejected" style="shape=parallelogram;perimeter=parallelogramPerimeter;whiteSpace=wrap;html=1;fixedSize=1;" vertex="1" parent="1">
                    <mxGeometry x="490.9399999999999" y="480" width="120" height="60" as="geometry"/>
                </mxCell>
                <mxCell id="1270" style="edgeStyle=none;html=1;exitX=0.5;exitY=1;exitDx=0;exitDy=0;entryX=1;entryY=0.5;entryDx=0;entryDy=0;" edge="1" parent="1" source="1113" target="1273">
                    <mxGeometry relative="1" as="geometry">
                        <mxPoint x="2747.87" y="853" as="targetPoint"/>
                        <Array as="points">
                            <mxPoint x="2660" y="810"/>
                        </Array>
                        <mxPoint x="2635" y="763" as="sourcePoint"/>
                    </mxGeometry>
                </mxCell>
                <mxCell id="1271" value="cancel" style="edgeLabel;html=1;align=center;verticalAlign=middle;resizable=0;points=[];" connectable="0" vertex="1" parent="1270">
                    <mxGeometry x="-0.2182" y="1" relative="1" as="geometry">
                        <mxPoint as="offset"/>
                    </mxGeometry>
                </mxCell>
                <mxCell id="1272" style="edgeStyle=none;html=1;exitX=0.5;exitY=0;exitDx=0;exitDy=0;entryX=0.5;entryY=1;entryDx=0;entryDy=0;" edge="1" parent="1" source="1273" target="1090">
                    <mxGeometry relative="1" as="geometry">
                        <mxPoint x="2560" y="873" as="targetPoint"/>
                    </mxGeometry>
                </mxCell>
                <mxCell id="1273" value="update report/proof" style="shape=parallelogram;perimeter=parallelogramPerimeter;whiteSpace=wrap;html=1;fixedSize=1;" vertex="1" parent="1">
                    <mxGeometry x="2471.87" y="785" width="100" height="50" as="geometry"/>
                </mxCell>
                <mxCell id="1274" style="edgeStyle=none;html=1;exitX=0.5;exitY=0;exitDx=0;exitDy=0;entryX=0.5;entryY=1;entryDx=0;entryDy=0;" edge="1" parent="1" source="1275" target="1273">
                    <mxGeometry relative="1" as="geometry"/>
                </mxCell>
                <mxCell id="1275" value="User" style="rounded=1;whiteSpace=wrap;html=1;" vertex="1" parent="1">
                    <mxGeometry x="2481.87" y="860" width="80" height="40" as="geometry"/>
                </mxCell>
                <mxCell id="1276" value="&lt;span style=&quot;font-size: 23px;&quot;&gt;Phân quyền quy trình xét duyệt OKR&amp;nbsp;&lt;/span&gt;" style="text;html=1;align=center;verticalAlign=middle;resizable=0;points=[];autosize=1;strokeColor=none;fillColor=none;container=0;" vertex="1" parent="1">
                    <mxGeometry x="379.99999999999994" y="1430" width="400" height="40" as="geometry"/>
                </mxCell>
                <mxCell id="1277" value="Start" style="ellipse;whiteSpace=wrap;html=1;" vertex="1" parent="1">
                    <mxGeometry x="140" y="1510" width="80" height="80" as="geometry"/>
                </mxCell>
                <mxCell id="1278" value="leader approvel/confirmation" style="whiteSpace=wrap;html=1;" vertex="1" parent="1">
                    <mxGeometry x="275.46999999999997" y="1520" width="120" height="60" as="geometry"/>
                </mxCell>
                <mxCell id="1279" style="edgeStyle=orthogonalEdgeStyle;rounded=0;orthogonalLoop=1;jettySize=auto;html=1;exitX=1;exitY=0.5;exitDx=0;exitDy=0;entryX=0;entryY=0.5;entryDx=0;entryDy=0;" edge="1" parent="1" source="1277" target="1278">
                    <mxGeometry relative="1" as="geometry"/>
                </mxCell>
                <mxCell id="1280" style="edgeStyle=orthogonalEdgeStyle;rounded=0;orthogonalLoop=1;jettySize=auto;html=1;exitX=1;exitY=0.5;exitDx=0;exitDy=0;entryX=0;entryY=0.5;entryDx=0;entryDy=0;" edge="1" parent="1" source="1281" target="1285">
                    <mxGeometry relative="1" as="geometry">
                        <mxPoint x="714.53" y="1550" as="targetPoint"/>
                    </mxGeometry>
                </mxCell>
                <mxCell id="1281" value="Notify" style="shape=parallelogram;perimeter=parallelogramPerimeter;whiteSpace=wrap;html=1;fixedSize=1;" vertex="1" parent="1">
                    <mxGeometry x="500" y="1520" width="150" height="60" as="geometry"/>
                </mxCell>
                <mxCell id="1282" style="edgeStyle=orthogonalEdgeStyle;rounded=0;orthogonalLoop=1;jettySize=auto;html=1;exitX=1;exitY=0.5;exitDx=0;exitDy=0;" edge="1" parent="1" source="1278" target="1281">
                    <mxGeometry relative="1" as="geometry">
                        <mxPoint x="500" y="1550" as="targetPoint"/>
                    </mxGeometry>
                </mxCell>
                <mxCell id="1283" value="end" style="ellipse;whiteSpace=wrap;html=1;" vertex="1" parent="1">
                    <mxGeometry x="914.53" y="1510" width="80" height="80" as="geometry"/>
                </mxCell>
                <mxCell id="1284" style="edgeStyle=orthogonalEdgeStyle;rounded=0;orthogonalLoop=1;jettySize=auto;html=1;exitX=1;exitY=0.5;exitDx=0;exitDy=0;entryX=0;entryY=0.5;entryDx=0;entryDy=0;" edge="1" parent="1" source="1285" target="1283">
                    <mxGeometry relative="1" as="geometry">
                        <mxPoint x="934.53" y="1549.8235294117649" as="targetPoint"/>
                        <mxPoint x="844.5300000000004" y="1550" as="sourcePoint"/>
                    </mxGeometry>
                </mxCell>
                <mxCell id="1285" value="manager" style="whiteSpace=wrap;html=1;" vertex="1" parent="1">
                    <mxGeometry x="704.53" y="1520" width="120" height="60" as="geometry"/>
                </mxCell>
                <mxCell id="1286" value="" style="endArrow=classic;html=1;rounded=0;exitX=1;exitY=0.5;exitDx=0;exitDy=0;entryX=0;entryY=0.5;entryDx=0;entryDy=0;" edge="1" parent="1" source="1281" target="1288">
                    <mxGeometry width="50" height="50" relative="1" as="geometry">
                        <mxPoint x="586.8" y="1388" as="sourcePoint"/>
                        <mxPoint x="696.8" y="1628" as="targetPoint"/>
                    </mxGeometry>
                </mxCell>
                <mxCell id="1287" style="edgeStyle=orthogonalEdgeStyle;rounded=0;orthogonalLoop=1;jettySize=auto;html=1;exitX=1;exitY=0.5;exitDx=0;exitDy=0;entryX=0;entryY=0.5;entryDx=0;entryDy=0;" edge="1" parent="1" source="1288" target="1283">
                    <mxGeometry relative="1" as="geometry"/>
                </mxCell>
                <mxCell id="1288" value="employee" style="whiteSpace=wrap;html=1;" vertex="1" parent="1">
                    <mxGeometry x="704.53" y="1598" width="120" height="60" as="geometry"/>
                </mxCell>
                <mxCell id="1289" value="&lt;span style=&quot;font-size: 23px;&quot;&gt;Phân quyền quy trình xét duyệt OKR&amp;nbsp;&lt;/span&gt;" style="text;html=1;align=center;verticalAlign=middle;resizable=0;points=[];autosize=1;strokeColor=none;fillColor=none;container=0;" vertex="1" parent="1">
                    <mxGeometry x="430" y="1050" width="400" height="40" as="geometry"/>
                </mxCell>
                <mxCell id="1290" value="Start" style="ellipse;whiteSpace=wrap;html=1;" vertex="1" parent="1">
                    <mxGeometry x="190" y="1130" width="80" height="80" as="geometry"/>
                </mxCell>
                <mxCell id="1291" value="Manager approvel/confirmation" style="whiteSpace=wrap;html=1;" vertex="1" parent="1">
                    <mxGeometry x="325.47" y="1140" width="120" height="60" as="geometry"/>
                </mxCell>
                <mxCell id="1292" style="edgeStyle=orthogonalEdgeStyle;rounded=0;orthogonalLoop=1;jettySize=auto;html=1;exitX=1;exitY=0.5;exitDx=0;exitDy=0;entryX=0;entryY=0.5;entryDx=0;entryDy=0;" edge="1" parent="1" source="1290" target="1291">
                    <mxGeometry relative="1" as="geometry"/>
                </mxCell>
                <mxCell id="1293" style="edgeStyle=orthogonalEdgeStyle;rounded=0;orthogonalLoop=1;jettySize=auto;html=1;exitX=1;exitY=0.5;exitDx=0;exitDy=0;entryX=0;entryY=0.5;entryDx=0;entryDy=0;" edge="1" parent="1" source="1294" target="1298">
                    <mxGeometry relative="1" as="geometry">
                        <mxPoint x="764.53" y="1170" as="targetPoint"/>
                    </mxGeometry>
                </mxCell>
                <mxCell id="1294" value="Notify" style="shape=parallelogram;perimeter=parallelogramPerimeter;whiteSpace=wrap;html=1;fixedSize=1;" vertex="1" parent="1">
                    <mxGeometry x="550" y="1140" width="150" height="60" as="geometry"/>
                </mxCell>
                <mxCell id="1295" style="edgeStyle=orthogonalEdgeStyle;rounded=0;orthogonalLoop=1;jettySize=auto;html=1;exitX=1;exitY=0.5;exitDx=0;exitDy=0;" edge="1" parent="1" source="1291" target="1294">
                    <mxGeometry relative="1" as="geometry">
                        <mxPoint x="550" y="1170" as="targetPoint"/>
                    </mxGeometry>
                </mxCell>
                <mxCell id="1296" value="end" style="ellipse;whiteSpace=wrap;html=1;" vertex="1" parent="1">
                    <mxGeometry x="964.53" y="1130" width="80" height="80" as="geometry"/>
                </mxCell>
                <mxCell id="1297" style="edgeStyle=orthogonalEdgeStyle;rounded=0;orthogonalLoop=1;jettySize=auto;html=1;exitX=1;exitY=0.5;exitDx=0;exitDy=0;entryX=0;entryY=0.5;entryDx=0;entryDy=0;" edge="1" parent="1" source="1298" target="1296">
                    <mxGeometry relative="1" as="geometry">
                        <mxPoint x="984.53" y="1169.8235294117649" as="targetPoint"/>
                        <mxPoint x="894.5300000000004" y="1170" as="sourcePoint"/>
                    </mxGeometry>
                </mxCell>
                <mxCell id="1298" value="leader" style="whiteSpace=wrap;html=1;" vertex="1" parent="1">
                    <mxGeometry x="754.53" y="1140" width="120" height="60" as="geometry"/>
                </mxCell>
                <mxCell id="1299" value="" style="endArrow=classic;html=1;rounded=0;exitX=1;exitY=0.5;exitDx=0;exitDy=0;entryX=0;entryY=0.5;entryDx=0;entryDy=0;" edge="1" parent="1" source="1294" target="1301">
                    <mxGeometry width="50" height="50" relative="1" as="geometry">
                        <mxPoint x="636.8" y="1008" as="sourcePoint"/>
                        <mxPoint x="746.8" y="1248" as="targetPoint"/>
                    </mxGeometry>
                </mxCell>
                <mxCell id="1300" style="edgeStyle=orthogonalEdgeStyle;rounded=0;orthogonalLoop=1;jettySize=auto;html=1;exitX=1;exitY=0.5;exitDx=0;exitDy=0;entryX=0;entryY=0.5;entryDx=0;entryDy=0;" edge="1" parent="1" source="1301" target="1296">
                    <mxGeometry relative="1" as="geometry"/>
                </mxCell>
                <mxCell id="1301" value="employee" style="whiteSpace=wrap;html=1;" vertex="1" parent="1">
                    <mxGeometry x="754.53" y="1218" width="120" height="60" as="geometry"/>
                </mxCell>
                <mxCell id="1302" style="edgeStyle=orthogonalEdgeStyle;rounded=0;orthogonalLoop=1;jettySize=auto;html=1;exitX=1;exitY=0.5;exitDx=0;exitDy=0;entryX=0;entryY=0.5;entryDx=0;entryDy=0;" edge="1" parent="1" source="1303" target="1296">
                    <mxGeometry relative="1" as="geometry"/>
                </mxCell>
                <mxCell id="1303" value="QA" style="whiteSpace=wrap;html=1;" vertex="1" parent="1">
                    <mxGeometry x="754.53" y="1300" width="120" height="60" as="geometry"/>
                </mxCell>
                <mxCell id="1304" value="Start" style="ellipse;whiteSpace=wrap;html=1;" vertex="1" parent="1">
                    <mxGeometry x="110" y="1780" width="80" height="80" as="geometry"/>
                </mxCell>
                <mxCell id="1305" value="User" style="whiteSpace=wrap;html=1;" vertex="1" parent="1">
                    <mxGeometry x="230" y="1790" width="120" height="60" as="geometry"/>
                </mxCell>
                <mxCell id="1306" style="edgeStyle=none;html=1;exitX=1;exitY=0.5;exitDx=0;exitDy=0;entryX=0;entryY=0.5;entryDx=0;entryDy=0;" edge="1" parent="1" source="1304" target="1305">
                    <mxGeometry relative="1" as="geometry"/>
                </mxCell>
                <mxCell id="1307" value="delete&amp;nbsp;" style="shape=parallelogram;perimeter=parallelogramPerimeter;whiteSpace=wrap;html=1;fixedSize=1;" vertex="1" parent="1">
                    <mxGeometry x="410" y="1790" width="120" height="60" as="geometry"/>
                </mxCell>
                <mxCell id="1308" style="edgeStyle=none;html=1;exitX=1;exitY=0.5;exitDx=0;exitDy=0;entryX=0;entryY=0.5;entryDx=0;entryDy=0;" edge="1" parent="1" source="1305" target="1307">
                    <mxGeometry relative="1" as="geometry"/>
                </mxCell>
                <mxCell id="1309" value="End" style="ellipse;whiteSpace=wrap;html=1;" vertex="1" parent="1">
                    <mxGeometry x="759.0699999999999" y="1780" width="80" height="80" as="geometry"/>
                </mxCell>
                <mxCell id="1310" value="new okr" style="whiteSpace=wrap;html=1;" vertex="1" parent="1">
                    <mxGeometry x="590" y="1790" width="120" height="60" as="geometry"/>
                </mxCell>
                <mxCell id="1311" style="edgeStyle=none;html=1;exitX=1;exitY=0.5;exitDx=0;exitDy=0;entryX=0;entryY=0.5;entryDx=0;entryDy=0;" edge="1" parent="1" source="1307" target="1310">
                    <mxGeometry relative="1" as="geometry"/>
                </mxCell>
                <mxCell id="1312" style="edgeStyle=none;html=1;exitX=1;exitY=0.5;exitDx=0;exitDy=0;entryX=0;entryY=0.5;entryDx=0;entryDy=0;" edge="1" parent="1" source="1310" target="1309">
                    <mxGeometry relative="1" as="geometry">
                        <mxPoint x="640" y="1820.1052631578946" as="targetPoint"/>
                    </mxGeometry>
                </mxCell>
                <mxCell id="1313" value="&lt;font style=&quot;font-size: 23px;&quot;&gt;xoá okr khi mới tạo&lt;/font&gt;" style="text;html=1;align=center;verticalAlign=middle;resizable=0;points=[];autosize=1;strokeColor=none;fillColor=none;" vertex="1" parent="1">
                    <mxGeometry x="360" y="1690" width="220" height="40" as="geometry"/>
                </mxCell>
                <mxCell id="1314" value="" style="endArrow=classic;html=1;rounded=0;exitX=1;exitY=0.5;exitDx=0;exitDy=0;entryX=0;entryY=0.5;entryDx=0;entryDy=0;" edge="1" parent="1" source="1294" target="1303">
                    <mxGeometry width="50" height="50" relative="1" as="geometry">
                        <mxPoint x="700" y="1180" as="sourcePoint"/>
                        <mxPoint x="765" y="1258" as="targetPoint"/>
                    </mxGeometry>
                </mxCell>
                <mxCell id="1315" value="lmanager approved" style="rhombus;whiteSpace=wrap;html=1;" vertex="1" parent="1">
                    <mxGeometry x="1919.9999999999998" y="1697.9499999999998" width="115.94" height="110" as="geometry"/>
                </mxCell>
                <mxCell id="1316" value="end" style="ellipse;whiteSpace=wrap;html=1;" vertex="1" parent="1">
                    <mxGeometry x="2100.0000000000005" y="1712.1900000000005" width="80" height="80" as="geometry"/>
                </mxCell>
                <mxCell id="1317" style="edgeStyle=none;html=1;exitX=1;exitY=0.5;exitDx=0;exitDy=0;entryX=0;entryY=0.5;entryDx=0;entryDy=0;" edge="1" parent="1" source="1315" target="1316">
                    <mxGeometry relative="1" as="geometry">
                        <mxPoint x="2063.7400000000002" y="1766.71" as="targetPoint"/>
                        <mxPoint x="1973.7400000000002" y="1766.71" as="sourcePoint"/>
                    </mxGeometry>
                </mxCell>
                <mxCell id="1318" value="aproved" style="edgeLabel;html=1;align=center;verticalAlign=middle;resizable=0;points=[];" connectable="0" vertex="1" parent="1317">
                    <mxGeometry x="0.2199" y="-1" relative="1" as="geometry">
                        <mxPoint x="-7" y="-1" as="offset"/>
                    </mxGeometry>
                </mxCell>
                <mxCell id="1319" style="edgeStyle=orthogonalEdgeStyle;rounded=0;orthogonalLoop=1;jettySize=auto;html=1;exitX=1;exitY=0.5;exitDx=0;exitDy=0;entryX=0;entryY=0.5;entryDx=0;entryDy=0;" edge="1" parent="1" source="1320" target="1328">
                    <mxGeometry relative="1" as="geometry"/>
                </mxCell>
                <mxCell id="1320" value="Start" style="ellipse;whiteSpace=wrap;html=1;" vertex="1" parent="1">
                    <mxGeometry x="1189.21" y="1712.9500000000007" width="80" height="80" as="geometry"/>
                </mxCell>
                <mxCell id="1321" value="user" style="whiteSpace=wrap;html=1;" vertex="1" parent="1">
                    <mxGeometry x="1549.2099999999998" y="1733.7100000000005" width="80" height="40" as="geometry"/>
                </mxCell>
                <mxCell id="1322" style="edgeStyle=none;html=1;exitX=0.5;exitY=1;exitDx=0;exitDy=0;entryX=0.5;entryY=1;entryDx=0;entryDy=0;" edge="1" parent="1" source="1315" target="1321">
                    <mxGeometry relative="1" as="geometry">
                        <mxPoint x="1912.5" y="1752.1900000000005" as="targetPoint"/>
                        <Array as="points">
                            <mxPoint x="1980" y="1878"/>
                            <mxPoint x="1590" y="1878"/>
                        </Array>
                    </mxGeometry>
                </mxCell>
                <mxCell id="1323" value="Denied" style="edgeLabel;html=1;align=center;verticalAlign=middle;resizable=0;points=[];" vertex="1" connectable="0" parent="1322">
                    <mxGeometry x="0.4656" y="-1" relative="1" as="geometry">
                        <mxPoint x="323" y="-43" as="offset"/>
                    </mxGeometry>
                </mxCell>
                <mxCell id="1324" value="modify&amp;nbsp;" style="shape=parallelogram;perimeter=parallelogramPerimeter;whiteSpace=wrap;html=1;fixedSize=1;" vertex="1" parent="1">
                    <mxGeometry x="1650" y="1733.71" width="110" height="38.48" as="geometry"/>
                </mxCell>
                <mxCell id="1325" style="edgeStyle=none;html=1;exitX=1;exitY=0.5;exitDx=0;exitDy=0;entryX=0;entryY=0.5;entryDx=0;entryDy=0;" edge="1" parent="1" source="1321" target="1324">
                    <mxGeometry relative="1" as="geometry"/>
                </mxCell>
                <mxCell id="1326" style="edgeStyle=orthogonalEdgeStyle;rounded=0;orthogonalLoop=1;jettySize=auto;html=1;exitX=1;exitY=0.5;exitDx=0;exitDy=0;entryX=0;entryY=0.5;entryDx=0;entryDy=0;" edge="1" parent="1" source="1324" target="1333">
                    <mxGeometry relative="1" as="geometry">
                        <mxPoint x="1833.7400000000002" y="1752.1900000000005" as="sourcePoint"/>
                    </mxGeometry>
                </mxCell>
                <mxCell id="1327" style="edgeStyle=orthogonalEdgeStyle;rounded=0;orthogonalLoop=1;jettySize=auto;html=1;exitX=1;exitY=0.5;exitDx=0;exitDy=0;entryX=0;entryY=0.5;entryDx=0;entryDy=0;" edge="1" parent="1" source="1328" target="1330">
                    <mxGeometry relative="1" as="geometry"/>
                </mxCell>
                <mxCell id="1328" value="Manager" style="whiteSpace=wrap;html=1;" vertex="1" parent="1">
                    <mxGeometry x="1300" y="1732.1900000000005" width="80" height="40" as="geometry"/>
                </mxCell>
                <mxCell id="1329" style="edgeStyle=orthogonalEdgeStyle;rounded=0;orthogonalLoop=1;jettySize=auto;html=1;exitX=1;exitY=0.5;exitDx=0;exitDy=0;entryX=0;entryY=0.5;entryDx=0;entryDy=0;" edge="1" parent="1" source="1330" target="1321">
                    <mxGeometry relative="1" as="geometry"/>
                </mxCell>
                <mxCell id="1330" value="open okr modify" style="shape=parallelogram;perimeter=parallelogramPerimeter;whiteSpace=wrap;html=1;fixedSize=1;" vertex="1" parent="1">
                    <mxGeometry x="1410.0000000000002" y="1733.7100000000005" width="110" height="38.48" as="geometry"/>
                </mxCell>
                <mxCell id="1331" value="&lt;span style=&quot;font-size: 24px;&quot;&gt;Mở chức năng modify cho user&lt;/span&gt;" style="text;html=1;align=center;verticalAlign=middle;resizable=0;points=[];autosize=1;strokeColor=none;fillColor=none;" vertex="1" parent="1">
                    <mxGeometry x="1194.68" y="1657.9499999999998" width="360" height="40" as="geometry"/>
                </mxCell>
                <mxCell id="1332" style="edgeStyle=orthogonalEdgeStyle;rounded=0;orthogonalLoop=1;jettySize=auto;html=1;exitX=1;exitY=0.5;exitDx=0;exitDy=0;entryX=0;entryY=0.5;entryDx=0;entryDy=0;" edge="1" parent="1" source="1333" target="1315">
                    <mxGeometry relative="1" as="geometry"/>
                </mxCell>
                <mxCell id="1333" value="okr" style="whiteSpace=wrap;html=1;" vertex="1" parent="1">
                    <mxGeometry x="1771.8700000000003" y="1723.71" width="120" height="60" as="geometry"/>
                </mxCell>
                <mxCell id="1165" value="leader" style="whiteSpace=wrap;html=1;" vertex="1" parent="1">
                    <mxGeometry x="214.53" y="2830" width="120" height="60" as="geometry"/>
                </mxCell>
                <mxCell id="1166" value="Create okr" style="shape=parallelogram;perimeter=parallelogramPerimeter;whiteSpace=wrap;html=1;fixedSize=1;" vertex="1" parent="1">
                    <mxGeometry x="354.53" y="2830" width="120" height="60" as="geometry"/>
                </mxCell>
                <mxCell id="1167" style="edgeStyle=none;html=1;exitX=1;exitY=0.5;exitDx=0;exitDy=0;entryX=0;entryY=0.5;entryDx=0;entryDy=0;" edge="1" parent="1" source="1165" target="1166">
                    <mxGeometry relative="1" as="geometry"/>
                </mxCell>
                <mxCell id="1168" value="new okr" style="whiteSpace=wrap;html=1;" vertex="1" parent="1">
                    <mxGeometry x="504.53" y="2830" width="120" height="60" as="geometry"/>
                </mxCell>
                <mxCell id="1169" style="edgeStyle=none;html=1;exitX=1;exitY=0.5;exitDx=0;exitDy=0;entryX=0;entryY=0.5;entryDx=0;entryDy=0;" edge="1" parent="1" source="1166" target="1168">
                    <mxGeometry relative="1" as="geometry">
                        <mxPoint x="594.53" y="2860" as="targetPoint"/>
                    </mxGeometry>
                </mxCell>
                <mxCell id="1170" value="manager review" style="shape=parallelogram;perimeter=parallelogramPerimeter;whiteSpace=wrap;html=1;fixedSize=1;" vertex="1" parent="1">
                    <mxGeometry x="694.5300000000001" y="2830" width="120" height="60" as="geometry"/>
                </mxCell>
                <mxCell id="1171" style="edgeStyle=none;html=1;exitX=1;exitY=0.5;exitDx=0;exitDy=0;entryX=0;entryY=0.5;entryDx=0;entryDy=0;" edge="1" parent="1" source="1168" target="1170">
                    <mxGeometry relative="1" as="geometry"/>
                </mxCell>
                <mxCell id="1172" value="approved" style="rhombus;whiteSpace=wrap;html=1;" vertex="1" parent="1">
                    <mxGeometry x="944.5300000000001" y="2690" width="80" height="80" as="geometry"/>
                </mxCell>
                <mxCell id="1173" style="edgeStyle=none;html=1;exitX=0.5;exitY=0;exitDx=0;exitDy=0;entryX=0;entryY=0.5;entryDx=0;entryDy=0;" edge="1" parent="1" source="1170" target="1172">
                    <mxGeometry relative="1" as="geometry">
                        <Array as="points">
                            <mxPoint x="756.4" y="2730"/>
                        </Array>
                    </mxGeometry>
                </mxCell>
                <mxCell id="1174" style="edgeStyle=none;html=1;exitX=0;exitY=0.5;exitDx=0;exitDy=0;entryX=1;entryY=0.5;entryDx=0;entryDy=0;" edge="1" parent="1" source="1175" target="1170">
                    <mxGeometry relative="1" as="geometry"/>
                </mxCell>
                <mxCell id="1175" value="modify okr" style="shape=parallelogram;perimeter=parallelogramPerimeter;whiteSpace=wrap;html=1;fixedSize=1;" vertex="1" parent="1">
                    <mxGeometry x="834.5300000000001" y="2840" width="90" height="40" as="geometry"/>
                </mxCell>
                <mxCell id="1176" style="edgeStyle=none;html=1;exitX=0.5;exitY=1;exitDx=0;exitDy=0;entryX=1;entryY=0.5;entryDx=0;entryDy=0;" edge="1" parent="1" source="1172" target="1175">
                    <mxGeometry relative="1" as="geometry">
                        <mxPoint x="986.4" y="2860" as="targetPoint"/>
                        <Array as="points">
                            <mxPoint x="986.4" y="2860"/>
                        </Array>
                    </mxGeometry>
                </mxCell>
                <mxCell id="1177" value="cancel" style="edgeLabel;html=1;align=center;verticalAlign=middle;resizable=0;points=[];" connectable="0" vertex="1" parent="1176">
                    <mxGeometry x="-0.253" y="1" relative="1" as="geometry">
                        <mxPoint as="offset"/>
                    </mxGeometry>
                </mxCell>
                <mxCell id="1178" value="resolve okr" style="shape=parallelogram;perimeter=parallelogramPerimeter;whiteSpace=wrap;html=1;fixedSize=1;" vertex="1" parent="1">
                    <mxGeometry x="1124.53" y="2700" width="120" height="60" as="geometry"/>
                </mxCell>
                <mxCell id="1179" style="edgeStyle=none;html=1;exitX=1;exitY=0.5;exitDx=0;exitDy=0;entryX=0;entryY=0.5;entryDx=0;entryDy=0;" edge="1" parent="1" source="1172" target="1178">
                    <mxGeometry relative="1" as="geometry">
                        <mxPoint x="1134.53" y="2610" as="targetPoint"/>
                    </mxGeometry>
                </mxCell>
                <mxCell id="1180" value="approvel" style="edgeLabel;html=1;align=center;verticalAlign=middle;resizable=0;points=[];" connectable="0" vertex="1" parent="1179">
                    <mxGeometry x="-0.1917" relative="1" as="geometry">
                        <mxPoint as="offset"/>
                    </mxGeometry>
                </mxCell>
                <mxCell id="1181" value="update report/proof" style="shape=parallelogram;perimeter=parallelogramPerimeter;whiteSpace=wrap;html=1;fixedSize=1;" vertex="1" parent="1">
                    <mxGeometry x="1286.3999999999999" y="2700" width="130" height="60" as="geometry"/>
                </mxCell>
                <mxCell id="1182" style="edgeStyle=none;html=1;exitX=1;exitY=0.5;exitDx=0;exitDy=0;entryX=0;entryY=0.5;entryDx=0;entryDy=0;" edge="1" parent="1" source="1178" target="1181">
                    <mxGeometry relative="1" as="geometry"/>
                </mxCell>
                <mxCell id="1183" value="manager confirmation" style="shape=parallelogram;perimeter=parallelogramPerimeter;whiteSpace=wrap;html=1;fixedSize=1;" vertex="1" parent="1">
                    <mxGeometry x="1490.1399999999996" y="2700" width="150" height="60" as="geometry"/>
                </mxCell>
                <mxCell id="1184" style="edgeStyle=none;html=1;exitX=1;exitY=0.5;exitDx=0;exitDy=0;entryX=0;entryY=0.5;entryDx=0;entryDy=0;" edge="1" parent="1" source="1181" target="1183">
                    <mxGeometry relative="1" as="geometry"/>
                </mxCell>
                <mxCell id="1185" style="edgeStyle=none;html=1;exitX=0.5;exitY=0;exitDx=0;exitDy=0;entryX=0;entryY=0.5;entryDx=0;entryDy=0;" edge="1" parent="1" source="1183" target="1186">
                    <mxGeometry relative="1" as="geometry">
                        <mxPoint x="1625.1399999999996" y="2580" as="sourcePoint"/>
                        <Array as="points">
                            <mxPoint x="1566.3999999999999" y="2580"/>
                        </Array>
                    </mxGeometry>
                </mxCell>
                <mxCell id="1186" value="confirm" style="rhombus;whiteSpace=wrap;html=1;" vertex="1" parent="1">
                    <mxGeometry x="1778.2699999999998" y="2540" width="80" height="80" as="geometry"/>
                </mxCell>
                <mxCell id="1187" style="edgeStyle=none;html=1;exitX=0;exitY=0.5;exitDx=0;exitDy=0;entryX=1;entryY=0.5;entryDx=0;entryDy=0;" edge="1" parent="1" source="1188" target="1183">
                    <mxGeometry relative="1" as="geometry">
                        <mxPoint x="1420.1399999999996" y="2840" as="targetPoint"/>
                    </mxGeometry>
                </mxCell>
                <mxCell id="1188" value="update report/proof" style="shape=parallelogram;perimeter=parallelogramPerimeter;whiteSpace=wrap;html=1;fixedSize=1;" vertex="1" parent="1">
                    <mxGeometry x="1658.2699999999998" y="2705" width="100" height="50" as="geometry"/>
                </mxCell>
                <mxCell id="1189" style="edgeStyle=none;html=1;exitX=0.5;exitY=1;exitDx=0;exitDy=0;entryX=1;entryY=0.5;entryDx=0;entryDy=0;" edge="1" parent="1" source="1186" target="1188">
                    <mxGeometry relative="1" as="geometry">
                        <mxPoint x="1818.2699999999998" y="2710" as="targetPoint"/>
                        <Array as="points">
                            <mxPoint x="1818.3999999999999" y="2730"/>
                        </Array>
                    </mxGeometry>
                </mxCell>
                <mxCell id="1190" value="cancel" style="edgeLabel;html=1;align=center;verticalAlign=middle;resizable=0;points=[];" connectable="0" vertex="1" parent="1189">
                    <mxGeometry x="-0.2182" y="1" relative="1" as="geometry">
                        <mxPoint as="offset"/>
                    </mxGeometry>
                </mxCell>
                <mxCell id="1191" style="edgeStyle=none;html=1;exitX=1;exitY=0.5;exitDx=0;exitDy=0;entryX=0;entryY=0.5;entryDx=0;entryDy=0;" edge="1" parent="1" source="1186" target="1206">
                    <mxGeometry relative="1" as="geometry">
                        <mxPoint x="1968.2699999999995" y="2580" as="targetPoint"/>
                    </mxGeometry>
                </mxCell>
                <mxCell id="1192" value="confirm" style="edgeLabel;html=1;align=center;verticalAlign=middle;resizable=0;points=[];" connectable="0" vertex="1" parent="1191">
                    <mxGeometry x="-0.2354" relative="1" as="geometry">
                        <mxPoint x="8" as="offset"/>
                    </mxGeometry>
                </mxCell>
                <mxCell id="1193" style="edgeStyle=none;html=1;exitX=0.5;exitY=0;exitDx=0;exitDy=0;" edge="1" parent="1" source="1194" target="1170">
                    <mxGeometry relative="1" as="geometry"/>
                </mxCell>
                <mxCell id="1194" value="manager" style="whiteSpace=wrap;html=1;rounded=1;" vertex="1" parent="1">
                    <mxGeometry x="704.5300000000001" y="2940" width="100" height="40" as="geometry"/>
                </mxCell>
                <mxCell id="1195" style="edgeStyle=none;html=1;exitX=0.5;exitY=1;exitDx=0;exitDy=0;entryX=0.5;entryY=0;entryDx=0;entryDy=0;" edge="1" parent="1" source="1196" target="1178">
                    <mxGeometry relative="1" as="geometry"/>
                </mxCell>
                <mxCell id="1196" value="leader" style="whiteSpace=wrap;html=1;rounded=1;" vertex="1" parent="1">
                    <mxGeometry x="1134.53" y="2610" width="100" height="40" as="geometry"/>
                </mxCell>
                <mxCell id="1197" style="edgeStyle=none;html=1;exitX=0.5;exitY=0;exitDx=0;exitDy=0;entryX=0.5;entryY=1;entryDx=0;entryDy=0;" edge="1" parent="1" source="1198" target="1175">
                    <mxGeometry relative="1" as="geometry"/>
                </mxCell>
                <mxCell id="1359" value="" style="edgeStyle=none;html=1;" edge="1" parent="1" source="1198" target="1175">
                    <mxGeometry relative="1" as="geometry"/>
                </mxCell>
                <mxCell id="1198" value="leader" style="whiteSpace=wrap;html=1;rounded=1;" vertex="1" parent="1">
                    <mxGeometry x="839.5300000000001" y="2940" width="80" height="40" as="geometry"/>
                </mxCell>
                <mxCell id="1199" style="edgeStyle=none;html=1;exitX=0.5;exitY=0;exitDx=0;exitDy=0;entryX=0.5;entryY=1;entryDx=0;entryDy=0;" edge="1" parent="1" source="1200" target="1183">
                    <mxGeometry relative="1" as="geometry"/>
                </mxCell>
                <mxCell id="1200" value="manager" style="whiteSpace=wrap;html=1;rounded=1;" vertex="1" parent="1">
                    <mxGeometry x="1514.5099999999995" y="2800" width="101.26" height="40" as="geometry"/>
                </mxCell>
                <mxCell id="1201" style="edgeStyle=none;html=1;exitX=0.5;exitY=0;exitDx=0;exitDy=0;entryX=0.5;entryY=1;entryDx=0;entryDy=0;" edge="1" parent="1" source="1202" target="1188">
                    <mxGeometry relative="1" as="geometry"/>
                </mxCell>
                <mxCell id="1202" value="leader" style="whiteSpace=wrap;html=1;rounded=1;" vertex="1" parent="1">
                    <mxGeometry x="1668.2699999999998" y="2800" width="80" height="40" as="geometry"/>
                </mxCell>
                <mxCell id="1203" value="Start" style="ellipse;whiteSpace=wrap;html=1;" vertex="1" parent="1">
                    <mxGeometry x="70" y="2820" width="80" height="80" as="geometry"/>
                </mxCell>
                <mxCell id="1204" style="edgeStyle=none;html=1;exitX=1;exitY=0.5;exitDx=0;exitDy=0;entryX=0;entryY=0.5;entryDx=0;entryDy=0;" edge="1" parent="1" source="1203" target="1165">
                    <mxGeometry relative="1" as="geometry">
                        <mxPoint x="164.53" y="2860" as="sourcePoint"/>
                    </mxGeometry>
                </mxCell>
                <mxCell id="1205" value="&lt;span style=&quot;font-size: 23px;&quot;&gt;Quy trình tạo okr của leader&lt;/span&gt;" style="text;html=1;align=center;verticalAlign=middle;resizable=0;points=[];autosize=1;strokeColor=none;fillColor=none;" vertex="1" parent="1">
                    <mxGeometry x="340.47" y="2600" width="310" height="40" as="geometry"/>
                </mxCell>
                <mxCell id="1206" value="QA verification" style="shape=parallelogram;perimeter=parallelogramPerimeter;whiteSpace=wrap;html=1;fixedSize=1;" vertex="1" parent="1">
                    <mxGeometry x="1950" y="2550" width="120" height="60" as="geometry"/>
                </mxCell>
                <mxCell id="1207" style="edgeStyle=none;html=1;exitX=0.5;exitY=1;exitDx=0;exitDy=0;entryX=0.25;entryY=0;entryDx=0;entryDy=0;" edge="1" parent="1" source="1208" target="1206">
                    <mxGeometry relative="1" as="geometry"/>
                </mxCell>
                <mxCell id="1208" value="QA" style="rounded=1;whiteSpace=wrap;html=1;" vertex="1" parent="1">
                    <mxGeometry x="1950.5300000000002" y="2460" width="60" height="40" as="geometry"/>
                </mxCell>
                <mxCell id="1209" value="verify" style="rhombus;whiteSpace=wrap;html=1;" vertex="1" parent="1">
                    <mxGeometry x="2108.13" y="2540" width="80" height="80" as="geometry"/>
                </mxCell>
                <mxCell id="1210" style="edgeStyle=none;html=1;exitX=1;exitY=0.5;exitDx=0;exitDy=0;entryX=0;entryY=0.5;entryDx=0;entryDy=0;" edge="1" parent="1" source="1206" target="1209">
                    <mxGeometry relative="1" as="geometry"/>
                </mxCell>
                <mxCell id="1211" value="manager last confirmation" style="shape=parallelogram;perimeter=parallelogramPerimeter;whiteSpace=wrap;html=1;fixedSize=1;" vertex="1" parent="1">
                    <mxGeometry x="2229.87" y="2550" width="178.26" height="60" as="geometry"/>
                </mxCell>
                <mxCell id="1212" style="edgeStyle=none;html=1;exitX=1;exitY=0.5;exitDx=0;exitDy=0;entryX=0;entryY=0.5;entryDx=0;entryDy=0;" edge="1" parent="1" source="1209" target="1211">
                    <mxGeometry relative="1" as="geometry">
                        <mxPoint x="2329.87" y="2580" as="targetPoint"/>
                        <mxPoint x="2229.87" y="2580" as="sourcePoint"/>
                    </mxGeometry>
                </mxCell>
                <mxCell id="1213" value="verify" style="edgeLabel;html=1;align=center;verticalAlign=middle;resizable=0;points=[];" connectable="0" vertex="1" parent="1212">
                    <mxGeometry x="0.2304" y="-2" relative="1" as="geometry">
                        <mxPoint x="-11" y="-2" as="offset"/>
                    </mxGeometry>
                </mxCell>
                <mxCell id="1214" style="edgeStyle=none;html=1;exitX=0.5;exitY=0;exitDx=0;exitDy=0;entryX=0;entryY=0.5;entryDx=0;entryDy=0;" edge="1" parent="1" source="1211" target="1217">
                    <mxGeometry relative="1" as="geometry">
                        <mxPoint x="2364.87" y="2430" as="sourcePoint"/>
                        <Array as="points">
                            <mxPoint x="2319.13" y="2470"/>
                        </Array>
                    </mxGeometry>
                </mxCell>
                <mxCell id="1215" style="edgeStyle=none;html=1;exitX=0.5;exitY=0;exitDx=0;exitDy=0;entryX=0.75;entryY=0;entryDx=0;entryDy=0;" edge="1" parent="1" source="1217" target="1206">
                    <mxGeometry relative="1" as="geometry">
                        <mxPoint x="2448" y="2555" as="targetPoint"/>
                        <Array as="points">
                            <mxPoint x="2038.13" y="2430"/>
                        </Array>
                    </mxGeometry>
                </mxCell>
                <mxCell id="1216" value="cancel" style="edgeLabel;html=1;align=center;verticalAlign=middle;resizable=0;points=[];" connectable="0" vertex="1" parent="1215">
                    <mxGeometry x="-0.2182" y="1" relative="1" as="geometry">
                        <mxPoint x="139" y="-1" as="offset"/>
                    </mxGeometry>
                </mxCell>
                <mxCell id="1217" value="confirm" style="rhombus;whiteSpace=wrap;html=1;" vertex="1" parent="1">
                    <mxGeometry x="2408" y="2430" width="80" height="80" as="geometry"/>
                </mxCell>
                <mxCell id="1218" style="edgeStyle=none;html=1;exitX=0.5;exitY=0;exitDx=0;exitDy=0;entryX=0.5;entryY=1;entryDx=0;entryDy=0;" edge="1" parent="1" source="1219" target="1211">
                    <mxGeometry relative="1" as="geometry"/>
                </mxCell>
                <mxCell id="1219" value="manager" style="rounded=1;whiteSpace=wrap;html=1;" vertex="1" parent="1">
                    <mxGeometry x="2268.37" y="2650" width="101.26" height="40" as="geometry"/>
                </mxCell>
                <mxCell id="1220" value="end" style="ellipse;whiteSpace=wrap;html=1;" vertex="1" parent="1">
                    <mxGeometry x="2708.13" y="2430" width="80" height="80" as="geometry"/>
                </mxCell>
                <mxCell id="1221" style="edgeStyle=orthogonalEdgeStyle;rounded=0;orthogonalLoop=1;jettySize=auto;html=1;exitX=1;exitY=0.5;exitDx=0;exitDy=0;entryX=0;entryY=0.5;entryDx=0;entryDy=0;" edge="1" parent="1" source="1222" target="1220">
                    <mxGeometry relative="1" as="geometry"/>
                </mxCell>
                <mxCell id="1222" value="OKR/KPI result" style="whiteSpace=wrap;html=1;" vertex="1" parent="1">
                    <mxGeometry x="2558.13" y="2440" width="120" height="60" as="geometry"/>
                </mxCell>
                <mxCell id="1223" style="edgeStyle=none;html=1;exitX=0.5;exitY=1;exitDx=0;exitDy=0;entryX=0.5;entryY=1;entryDx=0;entryDy=0;" edge="1" parent="1" source="1209" target="1222">
                    <mxGeometry relative="1" as="geometry">
                        <mxPoint x="2148.1299999999997" y="2705" as="targetPoint"/>
                        <Array as="points">
                            <mxPoint x="2148.13" y="2760"/>
                            <mxPoint x="2618.13" y="2760"/>
                        </Array>
                    </mxGeometry>
                </mxCell>
                <mxCell id="1224" value="fail" style="edgeLabel;html=1;align=center;verticalAlign=middle;resizable=0;points=[];" connectable="0" vertex="1" parent="1223">
                    <mxGeometry x="-0.2669" y="1" relative="1" as="geometry">
                        <mxPoint x="-179" y="-79" as="offset"/>
                    </mxGeometry>
                </mxCell>
                <mxCell id="1225" style="edgeStyle=none;html=1;exitX=1;exitY=0.5;exitDx=0;exitDy=0;entryX=0;entryY=0.5;entryDx=0;entryDy=0;" edge="1" parent="1" source="1217" target="1222">
                    <mxGeometry relative="1" as="geometry">
                        <mxPoint x="2588.13" y="2470" as="targetPoint"/>
                    </mxGeometry>
                </mxCell>
                <mxCell id="1226" value="confirm" style="edgeLabel;html=1;align=center;verticalAlign=middle;resizable=0;points=[];" connectable="0" vertex="1" parent="1225">
                    <mxGeometry x="-0.2354" relative="1" as="geometry">
                        <mxPoint x="8" as="offset"/>
                    </mxGeometry>
                </mxCell>
                <mxCell id="1336" value="manager" style="whiteSpace=wrap;html=1;" vertex="1" parent="1">
                    <mxGeometry x="244.53" y="3270" width="120" height="60" as="geometry"/>
                </mxCell>
                <mxCell id="1337" value="Create okr" style="shape=parallelogram;perimeter=parallelogramPerimeter;whiteSpace=wrap;html=1;fixedSize=1;" vertex="1" parent="1">
                    <mxGeometry x="384.53" y="3270" width="120" height="60" as="geometry"/>
                </mxCell>
                <mxCell id="1338" style="edgeStyle=none;html=1;exitX=1;exitY=0.5;exitDx=0;exitDy=0;entryX=0;entryY=0.5;entryDx=0;entryDy=0;" edge="1" parent="1" source="1336" target="1337">
                    <mxGeometry relative="1" as="geometry"/>
                </mxCell>
                <mxCell id="1339" value="new okr" style="whiteSpace=wrap;html=1;" vertex="1" parent="1">
                    <mxGeometry x="534.53" y="3270" width="120" height="60" as="geometry"/>
                </mxCell>
                <mxCell id="1340" style="edgeStyle=none;html=1;exitX=1;exitY=0.5;exitDx=0;exitDy=0;entryX=0;entryY=0.5;entryDx=0;entryDy=0;" edge="1" parent="1" source="1337" target="1339">
                    <mxGeometry relative="1" as="geometry">
                        <mxPoint x="624.53" y="3300" as="targetPoint"/>
                    </mxGeometry>
                </mxCell>
                <mxCell id="1341" value="operator review" style="shape=parallelogram;perimeter=parallelogramPerimeter;whiteSpace=wrap;html=1;fixedSize=1;" vertex="1" parent="1">
                    <mxGeometry x="724.5300000000001" y="3270" width="120" height="60" as="geometry"/>
                </mxCell>
                <mxCell id="1342" style="edgeStyle=none;html=1;exitX=1;exitY=0.5;exitDx=0;exitDy=0;entryX=0;entryY=0.5;entryDx=0;entryDy=0;" edge="1" parent="1" source="1339" target="1341">
                    <mxGeometry relative="1" as="geometry"/>
                </mxCell>
                <mxCell id="1343" value="approved" style="rhombus;whiteSpace=wrap;html=1;" vertex="1" parent="1">
                    <mxGeometry x="974.5300000000001" y="3130" width="80" height="80" as="geometry"/>
                </mxCell>
                <mxCell id="1344" style="edgeStyle=none;html=1;exitX=0.5;exitY=0;exitDx=0;exitDy=0;entryX=0;entryY=0.5;entryDx=0;entryDy=0;" edge="1" parent="1" source="1341" target="1343">
                    <mxGeometry relative="1" as="geometry">
                        <Array as="points">
                            <mxPoint x="786.4" y="3170"/>
                        </Array>
                    </mxGeometry>
                </mxCell>
                <mxCell id="1345" style="edgeStyle=none;html=1;exitX=0;exitY=0.5;exitDx=0;exitDy=0;entryX=1;entryY=0.5;entryDx=0;entryDy=0;" edge="1" parent="1" source="1346" target="1341">
                    <mxGeometry relative="1" as="geometry"/>
                </mxCell>
                <mxCell id="1346" value="modify okr" style="shape=parallelogram;perimeter=parallelogramPerimeter;whiteSpace=wrap;html=1;fixedSize=1;" vertex="1" parent="1">
                    <mxGeometry x="864.5300000000001" y="3280" width="90" height="40" as="geometry"/>
                </mxCell>
                <mxCell id="1347" style="edgeStyle=none;html=1;exitX=0.5;exitY=1;exitDx=0;exitDy=0;entryX=1;entryY=0.5;entryDx=0;entryDy=0;" edge="1" parent="1" source="1343" target="1346">
                    <mxGeometry relative="1" as="geometry">
                        <mxPoint x="1016.4" y="3300" as="targetPoint"/>
                        <Array as="points">
                            <mxPoint x="1016.4" y="3300"/>
                        </Array>
                    </mxGeometry>
                </mxCell>
                <mxCell id="1348" value="cancel" style="edgeLabel;html=1;align=center;verticalAlign=middle;resizable=0;points=[];" connectable="0" vertex="1" parent="1347">
                    <mxGeometry x="-0.253" y="1" relative="1" as="geometry">
                        <mxPoint as="offset"/>
                    </mxGeometry>
                </mxCell>
                <mxCell id="1349" style="edgeStyle=none;html=1;exitX=1;exitY=0.5;exitDx=0;exitDy=0;entryX=0;entryY=0.5;entryDx=0;entryDy=0;" edge="1" parent="1" source="1343" target="1358">
                    <mxGeometry relative="1" as="geometry">
                        <mxPoint x="1164.5299999999997" y="3170" as="targetPoint"/>
                    </mxGeometry>
                </mxCell>
                <mxCell id="1350" value="approvel" style="edgeLabel;html=1;align=center;verticalAlign=middle;resizable=0;points=[];" connectable="0" vertex="1" parent="1349">
                    <mxGeometry x="-0.1917" relative="1" as="geometry">
                        <mxPoint as="offset"/>
                    </mxGeometry>
                </mxCell>
                <mxCell id="1351" style="edgeStyle=none;html=1;exitX=0.5;exitY=0;exitDx=0;exitDy=0;" edge="1" parent="1" source="1352" target="1341">
                    <mxGeometry relative="1" as="geometry"/>
                </mxCell>
                <mxCell id="1352" value="operator&amp;nbsp;" style="whiteSpace=wrap;html=1;rounded=1;" vertex="1" parent="1">
                    <mxGeometry x="734.5300000000001" y="3380" width="100" height="40" as="geometry"/>
                </mxCell>
                <mxCell id="1353" style="edgeStyle=none;html=1;exitX=0.5;exitY=0;exitDx=0;exitDy=0;entryX=0.5;entryY=1;entryDx=0;entryDy=0;" edge="1" parent="1" source="1354" target="1346">
                    <mxGeometry relative="1" as="geometry"/>
                </mxCell>
                <mxCell id="1354" value="manager" style="whiteSpace=wrap;html=1;rounded=1;" vertex="1" parent="1">
                    <mxGeometry x="869.5300000000001" y="3380" width="80" height="40" as="geometry"/>
                </mxCell>
                <mxCell id="1355" value="Start" style="ellipse;whiteSpace=wrap;html=1;" vertex="1" parent="1">
                    <mxGeometry x="100" y="3260" width="80" height="80" as="geometry"/>
                </mxCell>
                <mxCell id="1356" style="edgeStyle=none;html=1;exitX=1;exitY=0.5;exitDx=0;exitDy=0;entryX=0;entryY=0.5;entryDx=0;entryDy=0;" edge="1" parent="1" source="1355" target="1336">
                    <mxGeometry relative="1" as="geometry">
                        <mxPoint x="194.53" y="3300" as="sourcePoint"/>
                    </mxGeometry>
                </mxCell>
                <mxCell id="1357" value="&lt;span style=&quot;font-size: 23px;&quot;&gt;Quy trình tạo okr của manager&lt;/span&gt;" style="text;html=1;align=center;verticalAlign=middle;resizable=0;points=[];autosize=1;strokeColor=none;fillColor=none;" vertex="1" parent="1">
                    <mxGeometry x="355.47" y="3040" width="340" height="40" as="geometry"/>
                </mxCell>
                <mxCell id="1358" value="end" style="ellipse;whiteSpace=wrap;html=1;" vertex="1" parent="1">
                    <mxGeometry x="1160" y="3130" width="80" height="80" as="geometry"/>
                </mxCell>
                <mxCell id="1362" value="" style="endArrow=none;dashed=1;html=1;" edge="1" parent="1">
                    <mxGeometry width="50" height="50" relative="1" as="geometry">
                        <mxPoint x="-30" y="3440" as="sourcePoint"/>
                        <mxPoint x="1290" y="3440" as="targetPoint"/>
                    </mxGeometry>
                </mxCell>
                <mxCell id="1363" value="" style="endArrow=none;dashed=1;html=1;" edge="1" parent="1">
                    <mxGeometry width="50" height="50" relative="1" as="geometry">
                        <mxPoint x="1286.4" y="3440" as="sourcePoint"/>
                        <mxPoint x="1286.4" y="2880" as="targetPoint"/>
                    </mxGeometry>
                </mxCell>
                <mxCell id="1365" value="" style="endArrow=none;dashed=1;html=1;" edge="1" parent="1">
                    <mxGeometry width="50" height="50" relative="1" as="geometry">
                        <mxPoint x="1286.4" y="2880" as="sourcePoint"/>
                        <mxPoint x="3266.4" y="2880" as="targetPoint"/>
                    </mxGeometry>
                </mxCell>
                <mxCell id="1366" style="edgeStyle=orthogonalEdgeStyle;rounded=0;orthogonalLoop=1;jettySize=auto;html=1;exitX=1;exitY=0.5;exitDx=0;exitDy=0;entryX=0;entryY=0.5;entryDx=0;entryDy=0;" edge="1" parent="1" source="1367" target="1369">
                    <mxGeometry relative="1" as="geometry"/>
                </mxCell>
                <mxCell id="1367" value="Start" style="ellipse;whiteSpace=wrap;html=1;" vertex="1" parent="1">
                    <mxGeometry x="2220" y="120" width="60" height="60" as="geometry"/>
                </mxCell>
                <mxCell id="1368" style="edgeStyle=orthogonalEdgeStyle;rounded=0;orthogonalLoop=1;jettySize=auto;html=1;exitX=1;exitY=0.5;exitDx=0;exitDy=0;entryX=0;entryY=0.5;entryDx=0;entryDy=0;" edge="1" parent="1" source="1369" target="1371">
                    <mxGeometry relative="1" as="geometry">
                        <mxPoint x="2560" y="150.39130434782624" as="targetPoint"/>
                    </mxGeometry>
                </mxCell>
                <mxCell id="1369" value="user's okr result" style="whiteSpace=wrap;html=1;" vertex="1" parent="1">
                    <mxGeometry x="2335" y="120" width="120" height="60" as="geometry"/>
                </mxCell>
                <mxCell id="1370" style="edgeStyle=orthogonalEdgeStyle;rounded=0;orthogonalLoop=1;jettySize=auto;html=1;exitX=1;exitY=0.5;exitDx=0;exitDy=0;entryX=0;entryY=0.5;entryDx=0;entryDy=0;" edge="1" parent="1" source="1371" target="1372">
                    <mxGeometry relative="1" as="geometry">
                        <mxPoint x="2850" y="149.78947368421063" as="targetPoint"/>
                    </mxGeometry>
                </mxCell>
                <mxCell id="1371" value="Export excel trọng số" style="shape=parallelogram;perimeter=parallelogramPerimeter;whiteSpace=wrap;html=1;fixedSize=1;" vertex="1" parent="1">
                    <mxGeometry x="2560" y="120" width="150" height="60" as="geometry"/>
                </mxCell>
                <mxCell id="1372" value="" style="whiteSpace=wrap;html=1;" vertex="1" parent="1">
                    <mxGeometry x="2800" y="120" width="120" height="60" as="geometry"/>
                </mxCell>
                <mxCell id="1373" value="Kiểm tra thời gian dự kiến vs thực tế" style="text;html=1;align=center;verticalAlign=middle;resizable=0;points=[];autosize=1;strokeColor=#6F0000;fillColor=#a20025;fontColor=#ffffff;" vertex="1" parent="1">
                    <mxGeometry x="2340" y="248" width="220" height="30" as="geometry"/>
                </mxCell>
                <mxCell id="1374" value="Thêm trường cho OKR về thời gian dự kiến vs thực tế" style="text;html=1;align=center;verticalAlign=middle;resizable=0;points=[];autosize=1;strokeColor=#6F0000;fillColor=#a20025;fontColor=#ffffff;" vertex="1" parent="1">
                    <mxGeometry x="2275" y="298" width="310" height="30" as="geometry"/>
                </mxCell>
                <mxCell id="1375" value="Thêm truowfnfg mới đánh giá tg làm việc" style="text;html=1;align=center;verticalAlign=middle;resizable=0;points=[];autosize=1;strokeColor=#6F0000;fillColor=#a20025;fontColor=#ffffff;" vertex="1" parent="1">
                    <mxGeometry x="2570" y="248" width="240" height="30" as="geometry"/>
                </mxCell>
                <mxCell id="1383" style="edgeStyle=none;html=1;exitX=0.5;exitY=1;exitDx=0;exitDy=0;entryX=0.5;entryY=0;entryDx=0;entryDy=0;" edge="1" parent="1" source="1376" target="1377">
                    <mxGeometry relative="1" as="geometry"/>
                </mxCell>
                <mxCell id="1384" style="edgeStyle=none;html=1;exitX=0.5;exitY=1;exitDx=0;exitDy=0;entryX=0.5;entryY=0;entryDx=0;entryDy=0;" edge="1" parent="1" source="1376" target="1378">
                    <mxGeometry relative="1" as="geometry"/>
                </mxCell>
                <mxCell id="1376" value="Manager" style="whiteSpace=wrap;html=1;" vertex="1" parent="1">
                    <mxGeometry x="625.8700000000001" y="3560" width="120" height="60" as="geometry"/>
                </mxCell>
                <mxCell id="1377" value="CRUD okr" style="shape=parallelogram;perimeter=parallelogramPerimeter;whiteSpace=wrap;html=1;fixedSize=1;" vertex="1" parent="1">
                    <mxGeometry x="295.08000000000015" y="3700" width="120" height="60" as="geometry"/>
                </mxCell>
                <mxCell id="1379" style="edgeStyle=none;html=1;exitX=0.5;exitY=1;exitDx=0;exitDy=0;entryX=0.5;entryY=0;entryDx=0;entryDy=0;" edge="1" parent="1" source="1394" target="1380">
                    <mxGeometry relative="1" as="geometry">
                        <mxPoint x="312.1300000000001" y="4030" as="targetPoint"/>
                        <mxPoint x="415.40000000000055" y="3940" as="sourcePoint"/>
                    </mxGeometry>
                </mxCell>
                <mxCell id="1381" style="edgeStyle=none;html=1;exitX=0.5;exitY=1;exitDx=0;exitDy=0;entryX=0.5;entryY=0;entryDx=0;entryDy=0;" edge="1" parent="1" source="1380" target="1385">
                    <mxGeometry relative="1" as="geometry">
                        <mxPoint x="259.2300000000005" y="4150" as="targetPoint"/>
                    </mxGeometry>
                </mxCell>
                <mxCell id="1389" style="edgeStyle=none;html=1;exitX=0.5;exitY=1;exitDx=0;exitDy=0;entryX=0.5;entryY=0;entryDx=0;entryDy=0;" edge="1" parent="1" source="1394" target="1390">
                    <mxGeometry relative="1" as="geometry">
                        <mxPoint x="462.1300000000001" y="4010" as="targetPoint"/>
                        <mxPoint x="415.40000000000055" y="3940" as="sourcePoint"/>
                    </mxGeometry>
                </mxCell>
                <mxCell id="1393" style="edgeStyle=none;html=1;exitX=0.5;exitY=1;exitDx=0;exitDy=0;entryX=0.5;entryY=0;entryDx=0;entryDy=0;" edge="1" parent="1" source="1378" target="1394">
                    <mxGeometry relative="1" as="geometry">
                        <mxPoint x="425.8700000000001" y="3890" as="targetPoint"/>
                    </mxGeometry>
                </mxCell>
                <mxCell id="1397" style="edgeStyle=none;html=1;exitX=0.5;exitY=1;exitDx=0;exitDy=0;entryX=0.5;entryY=0;entryDx=0;entryDy=0;" edge="1" parent="1" source="1378" target="1396">
                    <mxGeometry relative="1" as="geometry"/>
                </mxCell>
                <mxCell id="1378" value="View List employee&amp;nbsp;" style="shape=parallelogram;perimeter=parallelogramPerimeter;whiteSpace=wrap;html=1;fixedSize=1;" vertex="1" parent="1">
                    <mxGeometry x="610.8700000000001" y="3700" width="150" height="60" as="geometry"/>
                </mxCell>
                <mxCell id="1380" value="View Employee's list OKR/KPI" style="shape=parallelogram;perimeter=parallelogramPerimeter;whiteSpace=wrap;html=1;fixedSize=1;" vertex="1" parent="1">
                    <mxGeometry x="272.9200000000001" y="4010" width="139.21" height="60" as="geometry"/>
                </mxCell>
                <mxCell id="1388" style="edgeStyle=none;html=1;exitX=0.5;exitY=1;exitDx=0;exitDy=0;entryX=0.5;entryY=0;entryDx=0;entryDy=0;" edge="1" parent="1" source="1385" target="1386">
                    <mxGeometry relative="1" as="geometry"/>
                </mxCell>
                <mxCell id="1385" value="View detail OKR/KPI" style="shape=parallelogram;perimeter=parallelogramPerimeter;whiteSpace=wrap;html=1;fixedSize=1;" vertex="1" parent="1">
                    <mxGeometry x="240.2600000000002" y="4120" width="135.61" height="60" as="geometry"/>
                </mxCell>
                <mxCell id="1386" value="Approve/confirm" style="shape=parallelogram;perimeter=parallelogramPerimeter;whiteSpace=wrap;html=1;fixedSize=1;" vertex="1" parent="1">
                    <mxGeometry x="202.27000000000018" y="4250" width="120" height="60" as="geometry"/>
                </mxCell>
                <mxCell id="1390" value="filter (by name,okr/kpi status)" style="shape=parallelogram;perimeter=parallelogramPerimeter;whiteSpace=wrap;html=1;fixedSize=1;" vertex="1" parent="1">
                    <mxGeometry x="419.7900000000002" y="4010" width="156.08" height="60" as="geometry"/>
                </mxCell>
                <mxCell id="1403" style="edgeStyle=none;html=1;exitX=0.5;exitY=1;exitDx=0;exitDy=0;entryX=0.5;entryY=0;entryDx=0;entryDy=0;" edge="1" parent="1" source="1394" target="1402">
                    <mxGeometry relative="1" as="geometry"/>
                </mxCell>
                <mxCell id="1394" value="own department" style="whiteSpace=wrap;html=1;rounded=1;" vertex="1" parent="1">
                    <mxGeometry x="485.8700000000001" y="3840" width="120" height="60" as="geometry"/>
                </mxCell>
                <mxCell id="1400" style="edgeStyle=none;html=1;exitX=0.5;exitY=1;exitDx=0;exitDy=0;entryX=0.5;entryY=0;entryDx=0;entryDy=0;" edge="1" parent="1" source="1396" target="1398">
                    <mxGeometry relative="1" as="geometry"/>
                </mxCell>
                <mxCell id="1401" style="edgeStyle=none;html=1;exitX=0.5;exitY=1;exitDx=0;exitDy=0;entryX=0.551;entryY=0.033;entryDx=0;entryDy=0;entryPerimeter=0;" edge="1" parent="1" source="1396" target="1399">
                    <mxGeometry relative="1" as="geometry"/>
                </mxCell>
                <mxCell id="1396" value="scc" style="whiteSpace=wrap;html=1;rounded=1;" vertex="1" parent="1">
                    <mxGeometry x="815.7400000000005" y="3840" width="120" height="60" as="geometry"/>
                </mxCell>
                <mxCell id="1398" value="View Employee related infor" style="shape=parallelogram;perimeter=parallelogramPerimeter;whiteSpace=wrap;html=1;fixedSize=1;" vertex="1" parent="1">
                    <mxGeometry x="805.0800000000002" y="3970" width="150" height="60" as="geometry"/>
                </mxCell>
                <mxCell id="1399" value="filter (by department, work place,Name)" style="shape=parallelogram;perimeter=parallelogramPerimeter;whiteSpace=wrap;html=1;fixedSize=1;" vertex="1" parent="1">
                    <mxGeometry x="987.7899999999997" y="3970" width="177.95" height="60" as="geometry"/>
                </mxCell>
                <mxCell id="1402" value="Create/Delete employee by team" style="shape=parallelogram;perimeter=parallelogramPerimeter;whiteSpace=wrap;html=1;fixedSize=1;" vertex="1" parent="1">
                    <mxGeometry x="602.74" y="4010" width="130" height="60" as="geometry"/>
                </mxCell>
                <mxCell id="1404" value="&lt;font style=&quot;font-size: 28px;&quot;&gt;Các chức năng đang cần triển khai&lt;/font&gt;" style="text;html=1;align=center;verticalAlign=middle;resizable=0;points=[];autosize=1;strokeColor=#001DBC;fillColor=#0050ef;fontColor=#ffffff;" vertex="1" parent="1">
                    <mxGeometry x="935.8700000000001" y="3565" width="460" height="50" as="geometry"/>
                </mxCell>
            </root>
        </mxGraphModel>
    </diagram>
</mxfile>